<?xml version="1.0" encoding="utf-8" standalone="no"?>
<!DOCTYPE svg PUBLIC "-//W3C//DTD SVG 1.1//EN"
  "http://www.w3.org/Graphics/SVG/1.1/DTD/svg11.dtd">
<svg xmlns:xlink="http://www.w3.org/1999/xlink" width="1008pt" height="432pt" viewBox="0 0 1008 432" xmlns="http://www.w3.org/2000/svg" version="1.1">
 <metadata>
  <rdf:RDF xmlns:dc="http://purl.org/dc/elements/1.1/" xmlns:cc="http://creativecommons.org/ns#" xmlns:rdf="http://www.w3.org/1999/02/22-rdf-syntax-ns#">
   <cc:Work>
    <dc:type rdf:resource="http://purl.org/dc/dcmitype/StillImage"/>
    <dc:format>image/svg+xml</dc:format>
    <dc:creator>
     <cc:Agent>
      <dc:title>Matplotlib v3.11.0, https://matplotlib.org/</dc:title>
     </cc:Agent>
    </dc:creator>
   </cc:Work>
  </rdf:RDF>
 </metadata>
 <defs>
  <style type="text/css">*{stroke-linejoin: round; stroke-linecap: butt}</style>
 </defs>
 <g id="figure_1">
  <g id="patch_1">
   <path d="M 0 432
L 1008 432
L 1008 0
L 0 0
z
" style="fill: #ffffff"/>
  </g>
  <g id="axes_1">
   <g id="patch_2">
    <path d="M 90.72 328.32
L 469.796923 328.32
L 469.796923 103.68
L 90.72 103.68
z
" style="fill: #ffffff"/>
   </g>
   <g id="matplotlib.axis_1">
    <g id="xtick_1">
     <g id="line2d_1">
      <defs>
       <path id="m39878b2cea" d="M 0 0
L 0 3.5
" style="stroke: #555555; stroke-width: 0.8"/>
      </defs>
      <g>
       <use xlink:href="#m39878b2cea" x="145.545175" y="328.32" style="fill: #555555; stroke: #555555; stroke-width: 0.8"/>
      </g>
     </g>
     <g id="text_1">
      <!-- 10 -->
      <g style="fill: #555555" transform="translate(139.007987 346.945) scale(0.12 -0.12)">
       <defs>
        <path id="Inter-Regular-50f" d="M 2118 4655
L 2118 0
L 1555 0
L 1555 4064
L 1527 4064
L 391 3309
L 391 3882
L 1555 4655
L 2118 4655
z
" transform="scale(0.015625)"/>
        <path id="Inter-Regular-50e" d="M 2000 -64
Q 1486 -64 1125 217
Q 764 498 573 1033
Q 382 1568 382 2327
Q 382 3082 574 3617
Q 766 4152 1128 4435
Q 1491 4718 2000 4718
Q 2509 4718 2871 4435
Q 3234 4152 3426 3617
Q 3618 3082 3618 2327
Q 3618 1568 3427 1033
Q 3236 498 2875 217
Q 2514 -64 2000 -64
z
M 2000 436
Q 2509 436 2791 927
Q 3073 1418 3073 2327
Q 3073 2932 2944 3357
Q 2816 3782 2576 4004
Q 2336 4227 2000 4227
Q 1495 4227 1211 3730
Q 927 3234 927 2327
Q 927 1723 1054 1300
Q 1182 877 1421 656
Q 1661 436 2000 436
z
" transform="scale(0.015625)"/>
       </defs>
       <use xlink:href="#Inter-Regular-50f"/>
       <use xlink:href="#Inter-Regular-50e" transform="translate(46.453125 0)"/>
      </g>
     </g>
    </g>
    <g id="xtick_2">
     <g id="line2d_2">
      <g>
       <use xlink:href="#m39878b2cea" x="208.202517" y="328.32" style="fill: #555555; stroke: #555555; stroke-width: 0.8"/>
      </g>
     </g>
     <g id="text_2">
      <!-- 20 -->
      <g style="fill: #555555" transform="translate(200.82158 346.945) scale(0.12 -0.12)">
       <defs>
        <path id="Inter-Regular-510" d="M 482 0
L 482 409
L 2018 2091
Q 2289 2386 2464 2605
Q 2639 2825 2724 3019
Q 2809 3214 2809 3427
Q 2809 3673 2692 3852
Q 2575 4032 2372 4129
Q 2170 4227 1918 4227
Q 1650 4227 1451 4117
Q 1252 4007 1144 3809
Q 1036 3611 1036 3345
L 500 3345
Q 500 3755 688 4064
Q 877 4373 1203 4545
Q 1530 4718 1936 4718
Q 2345 4718 2661 4545
Q 2977 4373 3156 4079
Q 3336 3786 3336 3427
Q 3336 3170 3244 2926
Q 3152 2682 2926 2383
Q 2700 2084 2300 1655
L 1255 536
L 1255 500
L 3418 500
L 3418 0
L 482 0
z
" transform="scale(0.015625)"/>
       </defs>
       <use xlink:href="#Inter-Regular-510"/>
       <use xlink:href="#Inter-Regular-50e" transform="translate(60.515625 0)"/>
      </g>
     </g>
    </g>
    <g id="xtick_3">
     <g id="line2d_3">
      <g>
       <use xlink:href="#m39878b2cea" x="270.85986" y="328.32" style="fill: #555555; stroke: #555555; stroke-width: 0.8"/>
      </g>
     </g>
     <g id="text_3">
      <!-- 30 -->
      <g style="fill: #555555" transform="translate(263.291423 346.945) scale(0.12 -0.12)">
       <defs>
        <path id="Inter-Regular-512" d="M 2055 -64
Q 1605 -64 1253 90
Q 902 245 696 521
Q 491 798 473 1164
L 1045 1164
Q 1064 939 1200 776
Q 1336 614 1556 525
Q 1777 436 2045 436
Q 2345 436 2577 540
Q 2809 645 2941 831
Q 3073 1018 3073 1264
Q 3073 1520 2945 1717
Q 2818 1914 2572 2025
Q 2327 2136 1973 2136
L 1600 2136
L 1600 2636
L 1973 2636
Q 2250 2636 2460 2736
Q 2670 2836 2789 3018
Q 2909 3200 2909 3445
Q 2909 3682 2804 3857
Q 2700 4032 2510 4129
Q 2320 4227 2064 4227
Q 1823 4227 1610 4139
Q 1398 4052 1264 3887
Q 1130 3723 1118 3491
L 573 3491
Q 586 3857 793 4133
Q 1000 4409 1335 4563
Q 1670 4718 2073 4718
Q 2505 4718 2814 4544
Q 3123 4370 3289 4086
Q 3455 3802 3455 3473
Q 3455 3080 3249 2802
Q 3043 2525 2691 2418
L 2691 2382
Q 3132 2309 3379 2008
Q 3627 1707 3627 1264
Q 3627 884 3421 583
Q 3216 282 2861 109
Q 2507 -64 2055 -64
z
" transform="scale(0.015625)"/>
       </defs>
       <use xlink:href="#Inter-Regular-512"/>
       <use xlink:href="#Inter-Regular-50e" transform="translate(63.640625 0)"/>
      </g>
     </g>
    </g>
    <g id="xtick_4">
     <g id="line2d_4">
      <g>
       <use xlink:href="#m39878b2cea" x="333.517203" y="328.32" style="fill: #555555; stroke: #555555; stroke-width: 0.8"/>
      </g>
     </g>
     <g id="text_4">
      <!-- 40 -->
      <g style="fill: #555555" transform="translate(325.915015 346.945) scale(0.12 -0.12)">
       <defs>
        <path id="Inter-Regular-513" d="M 373 955
L 373 1418
L 2418 4655
L 2755 4655
L 2755 3936
L 2527 3936
L 982 1491
L 982 1455
L 3736 1455
L 3736 955
L 373 955
z
M 2564 0
L 2564 1095
L 2564 1311
L 2564 4655
L 3100 4655
L 3100 0
L 2564 0
z
" transform="scale(0.015625)"/>
       </defs>
       <use xlink:href="#Inter-Regular-513"/>
       <use xlink:href="#Inter-Regular-50e" transform="translate(64.203125 0)"/>
      </g>
     </g>
    </g>
    <g id="xtick_5">
     <g id="line2d_5">
      <g>
       <use xlink:href="#m39878b2cea" x="396.174545" y="328.32" style="fill: #555555; stroke: #555555; stroke-width: 0.8"/>
      </g>
     </g>
     <g id="text_5">
      <!-- 50 -->
      <g style="fill: #555555" transform="translate(388.776733 346.945) scale(0.12 -0.12)">
       <defs>
        <path id="Inter-Regular-514" d="M 1936 -64
Q 1536 -64 1215 95
Q 895 255 702 532
Q 509 809 491 1164
L 1036 1164
Q 1068 848 1324 642
Q 1580 436 1936 436
Q 2223 436 2446 570
Q 2670 705 2798 940
Q 2927 1175 2927 1473
Q 2927 1777 2794 2017
Q 2661 2257 2429 2395
Q 2198 2534 1900 2536
Q 1686 2539 1461 2472
Q 1236 2405 1091 2300
L 564 2364
L 845 4655
L 3264 4655
L 3264 4155
L 1318 4155
L 1155 2782
L 1182 2782
Q 1325 2895 1541 2970
Q 1757 3045 1991 3045
Q 2418 3045 2753 2842
Q 3089 2639 3281 2286
Q 3473 1934 3473 1482
Q 3473 1036 3274 687
Q 3075 339 2727 137
Q 2380 -64 1936 -64
z
" transform="scale(0.015625)"/>
       </defs>
       <use xlink:href="#Inter-Regular-514"/>
       <use xlink:href="#Inter-Regular-50e" transform="translate(60.796875 0)"/>
      </g>
     </g>
    </g>
    <g id="xtick_6">
     <g id="line2d_6">
      <g>
       <use xlink:href="#m39878b2cea" x="458.831888" y="328.32" style="fill: #555555; stroke: #555555; stroke-width: 0.8"/>
      </g>
     </g>
     <g id="text_6">
      <!-- 60 -->
      <g style="fill: #555555" transform="translate(451.340326 346.945) scale(0.12 -0.12)">
       <defs>
        <path id="Inter-Regular-516" d="M 2027 -64
Q 1741 -59 1454 45
Q 1168 150 931 399
Q 695 648 552 1074
Q 409 1500 409 2145
Q 409 2764 525 3242
Q 641 3720 861 4048
Q 1082 4377 1394 4547
Q 1707 4718 2100 4718
Q 2491 4718 2796 4562
Q 3102 4407 3295 4129
Q 3489 3852 3545 3491
L 2991 3491
Q 2914 3805 2691 4011
Q 2468 4218 2100 4218
Q 1559 4218 1249 3747
Q 939 3277 936 2427
L 973 2427
Q 1100 2620 1276 2757
Q 1452 2895 1666 2970
Q 1880 3045 2118 3045
Q 2518 3045 2850 2846
Q 3182 2648 3382 2299
Q 3582 1950 3582 1500
Q 3582 1068 3388 710
Q 3195 352 2846 142
Q 2498 -68 2027 -64
z
M 2027 436
Q 2314 436 2542 579
Q 2770 723 2903 964
Q 3036 1205 3036 1500
Q 3036 1789 2908 2026
Q 2780 2264 2556 2404
Q 2332 2545 2045 2545
Q 1830 2545 1643 2460
Q 1457 2375 1317 2227
Q 1177 2080 1097 1890
Q 1018 1700 1018 1491
Q 1018 1214 1149 973
Q 1280 732 1508 584
Q 1736 436 2027 436
z
" transform="scale(0.015625)"/>
       </defs>
       <use xlink:href="#Inter-Regular-516"/>
       <use xlink:href="#Inter-Regular-50e" transform="translate(62.359375 0)"/>
      </g>
     </g>
    </g>
    <g id="text_7">
     <!-- Index n -->
     <g style="fill: #252525" transform="translate(259.591274 365.467727) scale(0.12 -0.12)">
      <defs>
       <path id="Inter-Regular-c5" d="M 1127 4655
L 1127 0
L 564 0
L 564 4655
L 1127 4655
z
" transform="scale(0.015625)"/>
       <path id="Inter-Regular-2f7" d="M 1027 2100
L 1027 0
L 491 0
L 491 3491
L 1009 3491
L 1009 2945
L 1055 2945
Q 1177 3211 1427 3373
Q 1677 3536 2073 3536
Q 2427 3536 2693 3392
Q 2959 3248 3107 2956
Q 3255 2664 3255 2218
L 3255 0
L 2718 0
L 2718 2182
Q 2718 2593 2504 2824
Q 2291 3055 1918 3055
Q 1661 3055 1460 2943
Q 1259 2832 1143 2618
Q 1027 2405 1027 2100
z
" transform="scale(0.015625)"/>
       <path id="Inter-Regular-252" d="M 1809 -73
Q 1373 -73 1039 148
Q 705 370 516 776
Q 327 1182 327 1736
Q 327 2286 516 2690
Q 705 3095 1041 3315
Q 1377 3536 1818 3536
Q 2159 3536 2358 3423
Q 2557 3311 2662 3169
Q 2768 3027 2827 2936
L 2873 2936
L 2873 4655
L 3409 4655
L 3409 0
L 2891 0
L 2891 536
L 2827 536
Q 2768 441 2659 296
Q 2550 152 2347 39
Q 2145 -73 1809 -73
z
M 1882 409
Q 2205 409 2427 578
Q 2650 748 2766 1049
Q 2882 1350 2882 1745
Q 2882 2136 2768 2430
Q 2655 2725 2432 2890
Q 2209 3055 1882 3055
Q 1541 3055 1315 2881
Q 1089 2707 976 2410
Q 864 2114 864 1745
Q 864 1373 978 1069
Q 1093 766 1319 587
Q 1545 409 1882 409
z
" transform="scale(0.015625)"/>
       <path id="Inter-Regular-264" d="M 1955 -73
Q 1450 -73 1085 151
Q 720 375 523 778
Q 327 1182 327 1718
Q 327 2255 523 2665
Q 720 3075 1073 3305
Q 1427 3536 1900 3536
Q 2173 3536 2439 3445
Q 2705 3355 2923 3151
Q 3141 2948 3270 2614
Q 3400 2280 3400 1791
L 3400 1564
L 709 1564
L 709 2027
L 2855 2027
Q 2855 2323 2737 2554
Q 2620 2786 2405 2920
Q 2191 3055 1900 3055
Q 1580 3055 1347 2897
Q 1114 2739 989 2486
Q 864 2234 864 1945
L 864 1636
Q 864 1241 1001 967
Q 1139 693 1384 551
Q 1630 409 1955 409
Q 2166 409 2337 469
Q 2509 530 2634 651
Q 2759 773 2827 955
L 3345 809
Q 3264 545 3070 346
Q 2877 148 2593 37
Q 2309 -73 1955 -73
z
" transform="scale(0.015625)"/>
       <path id="Inter-Regular-3b1" d="M 891 3491
L 1727 2064
L 2564 3491
L 3182 3491
L 2055 1745
L 3182 0
L 2564 0
L 1727 1355
L 891 0
L 273 0
L 1382 1745
L 273 3491
L 891 3491
z
" transform="scale(0.015625)"/>
       <path id="Inter-Regular-691" transform="scale(0.015625)"/>
      </defs>
      <use xlink:href="#Inter-Regular-c5"/>
      <use xlink:href="#Inter-Regular-2f7" transform="translate(26.421875 0)"/>
      <use xlink:href="#Inter-Regular-252" transform="translate(84.9375 0)"/>
      <use xlink:href="#Inter-Regular-264" transform="translate(147.015625 0)"/>
      <use xlink:href="#Inter-Regular-3b1" transform="translate(203.828125 0)"/>
      <use xlink:href="#Inter-Regular-691" transform="translate(257.8125 0)"/>
      <use xlink:href="#Inter-Regular-2f7" transform="translate(285.9375 0)"/>
     </g>
    </g>
   </g>
   <g id="matplotlib.axis_2">
    <g id="ytick_1">
     <g id="line2d_7">
      <path d="M 90.72 323.133581
L 469.796923 323.133581
" clip-path="url(#pb50018b40f)" style="fill: none; stroke: #b0b0b0; stroke-opacity: 0.18; stroke-width: 0.8; stroke-linecap: square"/>
     </g>
     <g id="line2d_8">
      <defs>
       <path id="m47b9872957" d="M 0 0
L -3.5 0
" style="stroke: #555555; stroke-width: 0.8"/>
      </defs>
      <g>
       <use xlink:href="#m47b9872957" x="90.72" y="323.133581" style="fill: #555555; stroke: #555555; stroke-width: 0.8"/>
      </g>
     </g>
     <g id="text_8">
      <!-- 1.6 -->
      <g style="fill: #555555" transform="translate(68.174375 328.946081) scale(0.12 -0.12)">
       <defs>
        <path id="Inter-Regular-57c" d="M 882 -36
Q 714 -36 593 84
Q 473 205 473 373
Q 473 541 593 661
Q 714 782 882 782
Q 1050 782 1170 661
Q 1291 541 1291 373
Q 1291 261 1235 168
Q 1180 75 1087 19
Q 995 -36 882 -36
z
" transform="scale(0.015625)"/>
       </defs>
       <use xlink:href="#Inter-Regular-50f"/>
       <use xlink:href="#Inter-Regular-57c" transform="translate(42.1875 0)"/>
       <use xlink:href="#Inter-Regular-516" transform="translate(67.1875 0)"/>
      </g>
     </g>
    </g>
    <g id="ytick_2">
     <g id="line2d_9">
      <path d="M 90.72 285.322143
L 469.796923 285.322143
" clip-path="url(#pb50018b40f)" style="fill: none; stroke: #b0b0b0; stroke-opacity: 0.18; stroke-width: 0.8; stroke-linecap: square"/>
     </g>
     <g id="line2d_10">
      <g>
       <use xlink:href="#m47b9872957" x="90.72" y="285.322143" style="fill: #555555; stroke: #555555; stroke-width: 0.8"/>
      </g>
     </g>
     <g id="text_9">
      <!-- 1.8 -->
      <g style="fill: #555555" transform="translate(68.225 291.134643) scale(0.12 -0.12)">
       <defs>
        <path id="Inter-Regular-518" d="M 1973 -64
Q 1505 -64 1147 103
Q 789 270 589 564
Q 389 859 391 1236
Q 389 1532 507 1783
Q 625 2034 830 2203
Q 1036 2373 1291 2418
L 1291 2445
Q 957 2532 759 2821
Q 561 3111 564 3482
Q 561 3836 743 4115
Q 925 4395 1244 4556
Q 1564 4718 1973 4718
Q 2377 4718 2695 4556
Q 3014 4395 3197 4115
Q 3380 3836 3382 3482
Q 3380 3111 3181 2821
Q 2982 2532 2655 2445
L 2655 2418
Q 2907 2373 3109 2203
Q 3311 2034 3431 1783
Q 3552 1532 3555 1236
Q 3552 859 3351 564
Q 3150 270 2794 103
Q 2439 -64 1973 -64
z
M 1973 436
Q 2289 436 2518 538
Q 2748 641 2873 827
Q 2998 1014 3000 1264
Q 2998 1527 2864 1729
Q 2730 1932 2499 2048
Q 2268 2164 1973 2164
Q 1675 2164 1442 2048
Q 1209 1932 1076 1729
Q 943 1527 945 1264
Q 943 1014 1067 827
Q 1191 641 1423 538
Q 1655 436 1973 436
z
M 1973 2645
Q 2223 2645 2417 2745
Q 2611 2845 2722 3025
Q 2834 3205 2836 3445
Q 2834 3682 2725 3858
Q 2616 4034 2423 4130
Q 2230 4227 1973 4227
Q 1711 4227 1515 4130
Q 1320 4034 1213 3858
Q 1107 3682 1109 3445
Q 1107 3205 1217 3025
Q 1327 2845 1522 2745
Q 1718 2645 1973 2645
z
" transform="scale(0.015625)"/>
       </defs>
       <use xlink:href="#Inter-Regular-50f"/>
       <use xlink:href="#Inter-Regular-57c" transform="translate(42.1875 0)"/>
       <use xlink:href="#Inter-Regular-518" transform="translate(67.484375 0)"/>
      </g>
     </g>
    </g>
    <g id="ytick_3">
     <g id="line2d_11">
      <path d="M 90.72 247.510705
L 469.796923 247.510705
" clip-path="url(#pb50018b40f)" style="fill: none; stroke: #b0b0b0; stroke-opacity: 0.18; stroke-width: 0.8; stroke-linecap: square"/>
     </g>
     <g id="line2d_12">
      <g>
       <use xlink:href="#m47b9872957" x="90.72" y="247.510705" style="fill: #555555; stroke: #555555; stroke-width: 0.8"/>
      </g>
     </g>
     <g id="text_10">
      <!-- 2.0 -->
      <g style="fill: #555555" transform="translate(65.958125 253.323205) scale(0.12 -0.12)">
       <use xlink:href="#Inter-Regular-510"/>
       <use xlink:href="#Inter-Regular-57c" transform="translate(60.515625 0)"/>
       <use xlink:href="#Inter-Regular-50e" transform="translate(85.515625 0)"/>
      </g>
     </g>
    </g>
    <g id="ytick_4">
     <g id="line2d_13">
      <path d="M 90.72 209.699267
L 469.796923 209.699267
" clip-path="url(#pb50018b40f)" style="fill: none; stroke: #b0b0b0; stroke-opacity: 0.18; stroke-width: 0.8; stroke-linecap: square"/>
     </g>
     <g id="line2d_14">
      <g>
       <use xlink:href="#m47b9872957" x="90.72" y="209.699267" style="fill: #555555; stroke: #555555; stroke-width: 0.8"/>
      </g>
     </g>
     <g id="text_11">
      <!-- 2.2 -->
      <g style="fill: #555555" transform="translate(65.88875 215.511767) scale(0.12 -0.12)">
       <use xlink:href="#Inter-Regular-510"/>
       <use xlink:href="#Inter-Regular-57c" transform="translate(60.515625 0)"/>
       <use xlink:href="#Inter-Regular-510" transform="translate(88.078125 0)"/>
      </g>
     </g>
    </g>
    <g id="ytick_5">
     <g id="line2d_15">
      <path d="M 90.72 171.887828
L 469.796923 171.887828
" clip-path="url(#pb50018b40f)" style="fill: none; stroke: #b0b0b0; stroke-opacity: 0.18; stroke-width: 0.8; stroke-linecap: square"/>
     </g>
     <g id="line2d_16">
      <g>
       <use xlink:href="#m47b9872957" x="90.72" y="171.887828" style="fill: #555555; stroke: #555555; stroke-width: 0.8"/>
      </g>
     </g>
     <g id="text_12">
      <!-- 2.4 -->
      <g style="fill: #555555" transform="translate(65.44625 177.700328) scale(0.12 -0.12)">
       <use xlink:href="#Inter-Regular-510"/>
       <use xlink:href="#Inter-Regular-57c" transform="translate(60.515625 0)"/>
       <use xlink:href="#Inter-Regular-513" transform="translate(88.078125 0)"/>
      </g>
     </g>
    </g>
    <g id="ytick_6">
     <g id="line2d_17">
      <path d="M 90.72 134.07639
L 469.796923 134.07639
" clip-path="url(#pb50018b40f)" style="fill: none; stroke: #b0b0b0; stroke-opacity: 0.18; stroke-width: 0.8; stroke-linecap: square"/>
     </g>
     <g id="line2d_18">
      <g>
       <use xlink:href="#m47b9872957" x="90.72" y="134.07639" style="fill: #555555; stroke: #555555; stroke-width: 0.8"/>
      </g>
     </g>
     <g id="text_13">
      <!-- 2.6 -->
      <g style="fill: #555555" transform="translate(65.975 139.88889) scale(0.12 -0.12)">
       <use xlink:href="#Inter-Regular-510"/>
       <use xlink:href="#Inter-Regular-57c" transform="translate(60.515625 0)"/>
       <use xlink:href="#Inter-Regular-516" transform="translate(85.515625 0)"/>
      </g>
     </g>
    </g>
    <g id="text_14">
     <!-- $T_n^{1/n}$ -->
     <g style="fill: #252525" transform="translate(58.548523 226.02) rotate(-90) scale(0.12 -0.12)">
      <defs>
       <path id="Inter-Regular-199" d="M 309 4155
L 309 4655
L 3800 4655
L 3800 4155
L 2336 4155
L 2336 0
L 1773 0
L 1773 4155
L 309 4155
z
" transform="scale(0.015625)"/>
       <path id="Inter-Regular-54d" d="M 2136 4873
L 636 -700
L 145 -700
L 1645 4873
L 2136 4873
z
" transform="scale(0.015625)"/>
      </defs>
      <use xlink:href="#Inter-Regular-199" transform="translate(0 0.407812)"/>
      <use xlink:href="#Inter-Regular-50f" transform="translate(65.158916 51.701563) scale(0.7)"/>
      <use xlink:href="#Inter-Regular-54d" transform="translate(97.673017 51.701563) scale(0.7)"/>
      <use xlink:href="#Inter-Regular-2f7" transform="translate(122.63033 51.701563) scale(0.7)"/>
      <use xlink:href="#Inter-Regular-2f7" transform="translate(65.158916 -19.629687) scale(0.7)"/>
     </g>
    </g>
   </g>
   <g id="line2d_19">
    <path d="M 107.950769 318.109091
L 114.216503 305.131895
L 120.482238 280.513012
L 126.747972 266.065641
L 133.013706 251.934041
L 139.279441 240.645896
L 145.545175 230.601053
L 151.810909 221.894044
L 158.076643 214.147168
L 164.342378 207.237539
L 170.608112 201.012829
L 176.873846 195.373991
L 183.13958 190.234743
L 189.405315 185.527798
L 195.671049 181.197118
L 201.936783 177.196583
L 208.202517 173.487489
L 214.468252 170.037206
L 220.733986 166.817954
L 226.99972 163.805932
L 233.265455 160.980608
L 239.531189 158.324166
L 245.796923 155.821059
L 252.062657 153.457652
L 258.328392 151.221931
L 264.594126 149.103266
L 270.85986 147.092207
L 277.125594 145.18033
L 283.391329 143.360089
L 289.657063 141.624713
L 295.922797 139.968095
L 302.188531 138.384723
L 308.454266 136.869599
L 314.72 135.418183
L 320.985734 134.026341
L 327.251469 132.690298
L 333.517203 131.406601
L 339.782937 130.172084
L 346.048671 128.983837
L 352.314406 127.839183
L 358.58014 126.735651
L 364.845874 125.670961
L 371.111608 124.643
L 377.377343 123.649812
L 383.643077 122.689579
L 389.908811 121.760613
L 396.174545 120.86134
L 402.44028 119.990295
L 408.706014 119.146108
L 414.971748 118.3275
L 421.237483 117.533273
L 427.503217 116.762305
L 433.768951 116.013544
L 440.034685 115.286002
L 446.30042 114.578748
L 452.566154 113.890909
" clip-path="url(#pb50018b40f)" style="fill: none; stroke: #146356; stroke-width: 2; stroke-linecap: square"/>
   </g>
   <g id="patch_3">
    <path d="M 90.72 328.32
L 90.72 103.68
" style="fill: none; stroke: #000000; stroke-width: 0.8; stroke-linejoin: miter; stroke-linecap: square"/>
   </g>
   <g id="patch_4">
    <path d="M 90.72 328.32
L 469.796923 328.32
" style="fill: none; stroke: #000000; stroke-width: 0.8; stroke-linejoin: miter; stroke-linecap: square"/>
   </g>
   <g id="text_15">
    <!-- The root sequence -->
    <g style="fill: #252525" transform="translate(216.061899 97.68) scale(0.14 -0.14)">
     <defs>
      <path id="Inter-Bold-199" d="M 227 3843
L 227 4655
L 4050 4655
L 4050 3843
L 2625 3843
L 2625 0
L 1652 0
L 1652 3843
L 227 3843
z
" transform="scale(0.015625)"/>
      <path id="Inter-Bold-294" d="M 1355 2018
L 1355 0
L 386 0
L 386 4655
L 1327 4655
L 1327 2875
L 1368 2875
Q 1486 3184 1750 3360
Q 2014 3536 2411 3536
Q 2775 3536 3046 3378
Q 3318 3220 3469 2926
Q 3620 2632 3618 2223
L 3618 0
L 2650 0
L 2650 2050
Q 2652 2373 2487 2552
Q 2323 2732 2027 2732
Q 1830 2732 1678 2648
Q 1527 2564 1442 2403
Q 1357 2243 1355 2018
z
" transform="scale(0.015625)"/>
      <path id="Inter-Bold-264" d="M 1977 -68
Q 1439 -68 1051 151
Q 664 370 454 773
Q 245 1177 245 1730
Q 245 2268 454 2675
Q 664 3082 1044 3309
Q 1425 3536 1939 3536
Q 2284 3536 2583 3426
Q 2882 3316 3106 3095
Q 3330 2875 3455 2542
Q 3580 2209 3580 1764
L 3580 1498
L 632 1498
L 632 2098
L 2668 2098
Q 2668 2307 2577 2468
Q 2486 2630 2326 2722
Q 2166 2814 1955 2814
Q 1734 2814 1564 2712
Q 1395 2611 1300 2442
Q 1205 2273 1202 2066
L 1202 1495
Q 1202 1236 1298 1047
Q 1395 859 1572 757
Q 1750 655 1993 655
Q 2155 655 2289 700
Q 2423 745 2518 836
Q 2614 927 2664 1059
L 3559 1000
Q 3491 677 3280 437
Q 3070 198 2739 65
Q 2409 -68 1977 -68
z
" transform="scale(0.015625)"/>
      <path id="Inter-Bold-691" transform="scale(0.015625)"/>
      <path id="Inter-Bold-345" d="M 386 0
L 386 3491
L 1325 3491
L 1325 2882
L 1361 2882
Q 1457 3207 1682 3374
Q 1907 3541 2200 3541
Q 2273 3541 2357 3532
Q 2441 3523 2505 3507
L 2505 2648
Q 2436 2668 2315 2684
Q 2195 2700 2095 2700
Q 1882 2700 1715 2608
Q 1548 2516 1451 2352
Q 1355 2189 1355 1975
L 1355 0
L 386 0
z
" transform="scale(0.015625)"/>
      <path id="Inter-Bold-307" d="M 1964 -68
Q 1434 -68 1049 158
Q 664 384 454 789
Q 245 1195 245 1732
Q 245 2273 454 2678
Q 664 3084 1049 3310
Q 1434 3536 1964 3536
Q 2493 3536 2878 3310
Q 3264 3084 3473 2678
Q 3682 2273 3682 1732
Q 3682 1195 3473 789
Q 3264 384 2878 158
Q 2493 -68 1964 -68
z
M 1968 682
Q 2209 682 2370 819
Q 2532 957 2615 1195
Q 2698 1434 2698 1739
Q 2698 2043 2615 2281
Q 2532 2520 2370 2659
Q 2209 2798 1968 2798
Q 1725 2798 1560 2659
Q 1395 2520 1312 2281
Q 1230 2043 1230 1739
Q 1230 1434 1312 1195
Q 1395 957 1560 819
Q 1725 682 1968 682
z
" transform="scale(0.015625)"/>
      <path id="Inter-Bold-374" d="M 2243 3491
L 2243 2764
L 141 2764
L 141 3491
L 2243 3491
z
M 618 4327
L 1586 4327
L 1586 1073
Q 1586 939 1627 865
Q 1668 791 1742 761
Q 1816 732 1914 732
Q 1982 732 2050 744
Q 2118 757 2155 764
L 2307 43
Q 2234 20 2102 -10
Q 1970 -41 1782 -48
Q 1432 -61 1169 45
Q 907 152 761 377
Q 616 602 618 945
L 618 4327
z
" transform="scale(0.015625)"/>
      <path id="Inter-Bold-363" d="M 3291 2495
L 2405 2441
Q 2382 2555 2307 2647
Q 2232 2739 2110 2794
Q 1989 2850 1820 2850
Q 1595 2850 1440 2755
Q 1286 2661 1286 2505
Q 1286 2380 1386 2293
Q 1486 2207 1730 2155
L 2361 2027
Q 2870 1923 3120 1691
Q 3370 1459 3370 1082
Q 3370 739 3169 479
Q 2968 220 2619 76
Q 2270 -68 1816 -68
Q 1123 -68 712 221
Q 302 511 232 1011
L 1184 1061
Q 1227 850 1393 740
Q 1559 630 1818 630
Q 2073 630 2228 728
Q 2384 827 2386 984
Q 2384 1116 2275 1201
Q 2166 1286 1939 1332
L 1334 1452
Q 823 1555 574 1807
Q 325 2059 325 2450
Q 325 2786 508 3029
Q 691 3273 1024 3404
Q 1357 3536 1805 3536
Q 2466 3536 2846 3256
Q 3227 2977 3291 2495
z
" transform="scale(0.015625)"/>
      <path id="Inter-Bold-341" d="M 2693 -1309
L 2693 559
L 2664 559
Q 2595 414 2471 272
Q 2348 130 2151 36
Q 1955 -57 1673 -57
Q 1275 -57 953 149
Q 632 355 444 756
Q 257 1157 257 1741
Q 257 2341 450 2740
Q 643 3139 964 3337
Q 1286 3536 1670 3536
Q 1964 3536 2160 3437
Q 2357 3339 2478 3192
Q 2600 3045 2664 2905
L 2705 2905
L 2705 3491
L 3659 3491
L 3659 -1309
L 2693 -1309
z
M 1980 714
Q 2214 714 2376 842
Q 2539 970 2626 1202
Q 2714 1434 2714 1745
Q 2714 2057 2627 2286
Q 2541 2516 2377 2641
Q 2214 2766 1980 2766
Q 1741 2766 1577 2636
Q 1414 2507 1329 2277
Q 1245 2048 1245 1745
Q 1245 1441 1330 1208
Q 1416 975 1578 844
Q 1741 714 1980 714
z
" transform="scale(0.015625)"/>
      <path id="Inter-Bold-383" d="M 2625 1486
L 2625 3491
L 3593 3491
L 3593 0
L 2664 0
L 2664 634
L 2627 634
Q 2509 327 2235 141
Q 1961 -45 1568 -45
Q 1218 -45 952 114
Q 686 273 537 566
Q 389 859 386 1268
L 386 3491
L 1355 3491
L 1355 1441
Q 1357 1132 1520 952
Q 1684 773 1959 773
Q 2134 773 2286 853
Q 2439 934 2533 1093
Q 2627 1252 2625 1486
z
" transform="scale(0.015625)"/>
      <path id="Inter-Bold-2f7" d="M 1355 2018
L 1355 0
L 386 0
L 386 3491
L 1309 3491
L 1309 2875
L 1350 2875
Q 1466 3180 1738 3358
Q 2011 3536 2400 3536
Q 2764 3536 3034 3377
Q 3305 3218 3455 2924
Q 3605 2630 3605 2223
L 3605 0
L 2636 0
L 2636 2050
Q 2639 2370 2473 2551
Q 2307 2732 2016 2732
Q 1820 2732 1671 2648
Q 1523 2564 1440 2403
Q 1357 2243 1355 2018
z
" transform="scale(0.015625)"/>
      <path id="Inter-Bold-246" d="M 1964 -68
Q 1427 -68 1042 160
Q 657 389 451 795
Q 245 1202 245 1732
Q 245 2268 453 2674
Q 661 3080 1045 3308
Q 1430 3536 1959 3536
Q 2416 3536 2759 3370
Q 3102 3205 3302 2905
Q 3502 2605 3523 2200
L 2609 2200
Q 2570 2461 2405 2621
Q 2241 2782 1975 2782
Q 1750 2782 1583 2660
Q 1416 2539 1323 2307
Q 1230 2075 1230 1745
Q 1230 1411 1322 1177
Q 1414 943 1582 820
Q 1750 698 1975 698
Q 2141 698 2274 766
Q 2407 834 2494 964
Q 2582 1095 2609 1280
L 3523 1280
Q 3500 880 3305 576
Q 3111 273 2770 102
Q 2430 -68 1964 -68
z
" transform="scale(0.015625)"/>
     </defs>
     <use xlink:href="#Inter-Bold-199"/>
     <use xlink:href="#Inter-Bold-294" transform="translate(66.828125 0)"/>
     <use xlink:href="#Inter-Bold-264" transform="translate(129.25 0)"/>
     <use xlink:href="#Inter-Bold-691" transform="translate(189.015625 0)"/>
     <use xlink:href="#Inter-Bold-345" transform="translate(212.203125 0)"/>
     <use xlink:href="#Inter-Bold-307" transform="translate(250.515625 0)"/>
     <use xlink:href="#Inter-Bold-307" transform="translate(311.875 0)"/>
     <use xlink:href="#Inter-Bold-374" transform="translate(373.234375 0)"/>
     <use xlink:href="#Inter-Bold-691" transform="translate(412.078125 0)"/>
     <use xlink:href="#Inter-Bold-363" transform="translate(435.265625 0)"/>
     <use xlink:href="#Inter-Bold-264" transform="translate(491.4375 0)"/>
     <use xlink:href="#Inter-Bold-341" transform="translate(551.203125 0)"/>
     <use xlink:href="#Inter-Bold-383" transform="translate(614.453125 0)"/>
     <use xlink:href="#Inter-Bold-264" transform="translate(676.640625 0)"/>
     <use xlink:href="#Inter-Bold-2f7" transform="translate(736.40625 0)"/>
     <use xlink:href="#Inter-Bold-246" transform="translate(798.59375 0)"/>
     <use xlink:href="#Inter-Bold-264" transform="translate(857.328125 0)"/>
    </g>
   </g>
  </g>
  <g id="axes_2">
   <g id="patch_5">
    <path d="M 598.683077 328.32
L 977.76 328.32
L 977.76 103.68
L 598.683077 103.68
z
" style="fill: #ffffff"/>
   </g>
   <g id="matplotlib.axis_3">
    <g id="xtick_7">
     <g id="line2d_20">
      <g>
       <use xlink:href="#m39878b2cea" x="653.508252" y="328.32" style="fill: #555555; stroke: #555555; stroke-width: 0.8"/>
      </g>
     </g>
     <g id="text_16">
      <!-- 10 -->
      <g style="fill: #555555" transform="translate(646.971064 346.945) scale(0.12 -0.12)">
       <use xlink:href="#Inter-Regular-50f"/>
       <use xlink:href="#Inter-Regular-50e" transform="translate(46.453125 0)"/>
      </g>
     </g>
    </g>
    <g id="xtick_8">
     <g id="line2d_21">
      <g>
       <use xlink:href="#m39878b2cea" x="716.165594" y="328.32" style="fill: #555555; stroke: #555555; stroke-width: 0.8"/>
      </g>
     </g>
     <g id="text_17">
      <!-- 20 -->
      <g style="fill: #555555" transform="translate(708.784657 346.945) scale(0.12 -0.12)">
       <use xlink:href="#Inter-Regular-510"/>
       <use xlink:href="#Inter-Regular-50e" transform="translate(60.515625 0)"/>
      </g>
     </g>
    </g>
    <g id="xtick_9">
     <g id="line2d_22">
      <g>
       <use xlink:href="#m39878b2cea" x="778.822937" y="328.32" style="fill: #555555; stroke: #555555; stroke-width: 0.8"/>
      </g>
     </g>
     <g id="text_18">
      <!-- 30 -->
      <g style="fill: #555555" transform="translate(771.2545 346.945) scale(0.12 -0.12)">
       <use xlink:href="#Inter-Regular-512"/>
       <use xlink:href="#Inter-Regular-50e" transform="translate(63.640625 0)"/>
      </g>
     </g>
    </g>
    <g id="xtick_10">
     <g id="line2d_23">
      <g>
       <use xlink:href="#m39878b2cea" x="841.48028" y="328.32" style="fill: #555555; stroke: #555555; stroke-width: 0.8"/>
      </g>
     </g>
     <g id="text_19">
      <!-- 40 -->
      <g style="fill: #555555" transform="translate(833.878092 346.945) scale(0.12 -0.12)">
       <use xlink:href="#Inter-Regular-513"/>
       <use xlink:href="#Inter-Regular-50e" transform="translate(64.203125 0)"/>
      </g>
     </g>
    </g>
    <g id="xtick_11">
     <g id="line2d_24">
      <g>
       <use xlink:href="#m39878b2cea" x="904.137622" y="328.32" style="fill: #555555; stroke: #555555; stroke-width: 0.8"/>
      </g>
     </g>
     <g id="text_20">
      <!-- 50 -->
      <g style="fill: #555555" transform="translate(896.73981 346.945) scale(0.12 -0.12)">
       <use xlink:href="#Inter-Regular-514"/>
       <use xlink:href="#Inter-Regular-50e" transform="translate(60.796875 0)"/>
      </g>
     </g>
    </g>
    <g id="xtick_12">
     <g id="line2d_25">
      <g>
       <use xlink:href="#m39878b2cea" x="966.794965" y="328.32" style="fill: #555555; stroke: #555555; stroke-width: 0.8"/>
      </g>
     </g>
     <g id="text_21">
      <!-- 60 -->
      <g style="fill: #555555" transform="translate(959.303403 346.945) scale(0.12 -0.12)">
       <use xlink:href="#Inter-Regular-516"/>
       <use xlink:href="#Inter-Regular-50e" transform="translate(62.359375 0)"/>
      </g>
     </g>
    </g>
    <g id="text_22">
     <!-- Center n -->
     <g style="fill: #252525" transform="translate(763.779038 365.467727) scale(0.12 -0.12)">
      <defs>
       <path id="Inter-Regular-49" d="M 4309 3200
L 3745 3200
Q 3695 3443 3571 3627
Q 3448 3811 3271 3937
Q 3095 4064 2881 4127
Q 2668 4191 2436 4191
Q 2014 4191 1672 3977
Q 1330 3764 1128 3348
Q 927 2932 927 2327
Q 927 1723 1128 1307
Q 1330 891 1672 677
Q 2014 464 2436 464
Q 2668 464 2881 527
Q 3095 591 3271 717
Q 3448 843 3571 1028
Q 3695 1214 3745 1455
L 4309 1455
Q 4245 1098 4077 816
Q 3909 534 3659 337
Q 3409 141 3099 38
Q 2789 -64 2436 -64
Q 1841 -64 1377 227
Q 914 518 648 1054
Q 382 1591 382 2327
Q 382 3064 648 3600
Q 914 4136 1377 4427
Q 1841 4718 2436 4718
Q 2789 4718 3099 4616
Q 3409 4514 3659 4317
Q 3909 4120 4077 3839
Q 4245 3559 4309 3200
z
" transform="scale(0.015625)"/>
       <path id="Inter-Regular-374" d="M 2009 3491
L 2009 3036
L 200 3036
L 200 3491
L 2009 3491
z
M 727 4327
L 1264 4327
L 1264 1000
Q 1264 773 1331 660
Q 1398 548 1503 510
Q 1609 473 1727 473
Q 1816 473 1873 483
Q 1930 493 1964 500
L 2073 18
Q 2018 -2 1920 -23
Q 1823 -45 1673 -45
Q 1445 -45 1228 52
Q 1011 150 869 350
Q 727 550 727 855
L 727 4327
z
" transform="scale(0.015625)"/>
       <path id="Inter-Regular-345" d="M 491 0
L 491 3491
L 1009 3491
L 1009 2964
L 1045 2964
Q 1141 3223 1391 3384
Q 1641 3545 1955 3545
Q 2014 3545 2102 3543
Q 2191 3541 2236 3536
L 2236 2991
Q 2209 2998 2112 3012
Q 2016 3027 1909 3027
Q 1655 3027 1456 2921
Q 1257 2816 1142 2630
Q 1027 2445 1027 2209
L 1027 0
L 491 0
z
" transform="scale(0.015625)"/>
      </defs>
      <use xlink:href="#Inter-Regular-49"/>
      <use xlink:href="#Inter-Regular-264" transform="translate(72.734375 0)"/>
      <use xlink:href="#Inter-Regular-2f7" transform="translate(130.96875 0)"/>
      <use xlink:href="#Inter-Regular-374" transform="translate(189.484375 0)"/>
      <use xlink:href="#Inter-Regular-264" transform="translate(225.28125 0)"/>
      <use xlink:href="#Inter-Regular-345" transform="translate(283.515625 0)"/>
      <use xlink:href="#Inter-Regular-691" transform="translate(320.734375 0)"/>
      <use xlink:href="#Inter-Regular-2f7" transform="translate(348.859375 0)"/>
     </g>
    </g>
   </g>
   <g id="matplotlib.axis_4">
    <g id="ytick_7">
     <g id="line2d_26">
      <path d="M 598.683077 305.091895
L 977.76 305.091895
" clip-path="url(#p05b05a7b3d)" style="fill: none; stroke: #b0b0b0; stroke-opacity: 0.18; stroke-width: 0.8; stroke-linecap: square"/>
     </g>
     <g id="line2d_27">
      <g>
       <use xlink:href="#m47b9872957" x="598.683077" y="305.091895" style="fill: #555555; stroke: #555555; stroke-width: 0.8"/>
      </g>
     </g>
     <g id="text_23">
      <!-- $\mathdefault{-10^{-2}}$ -->
      <g style="fill: #555555" transform="translate(559.523077 310.904395) scale(0.12 -0.12)">
       <defs>
        <path id="Inter-Regular-595" d="M 3564 2073
L 3564 1564
L 655 1564
L 655 2073
L 3564 2073
z
" transform="scale(0.015625)"/>
       </defs>
       <use xlink:href="#Inter-Regular-595" transform="translate(0 0.214063)"/>
       <use xlink:href="#Inter-Regular-50f" transform="translate(65.90889 0.214063)"/>
       <use xlink:href="#Inter-Regular-50e" transform="translate(112.357605 0.214063)"/>
       <use xlink:href="#Inter-Regular-595" transform="translate(175.811992 38.396875) scale(0.7)"/>
       <use xlink:href="#Inter-Regular-510" transform="translate(221.948215 38.396875) scale(0.7)"/>
      </g>
     </g>
    </g>
    <g id="ytick_8">
     <g id="line2d_28">
      <path d="M 598.683077 279.776743
L 977.76 279.776743
" clip-path="url(#p05b05a7b3d)" style="fill: none; stroke: #b0b0b0; stroke-opacity: 0.18; stroke-width: 0.8; stroke-linecap: square"/>
     </g>
     <g id="line2d_29">
      <g>
       <use xlink:href="#m47b9872957" x="598.683077" y="279.776743" style="fill: #555555; stroke: #555555; stroke-width: 0.8"/>
      </g>
     </g>
     <g id="text_24">
      <!-- $\mathdefault{-10^{-3}}$ -->
      <g style="fill: #555555" transform="translate(559.283077 285.589243) scale(0.12 -0.12)">
       <use xlink:href="#Inter-Regular-595" transform="translate(0 0.214063)"/>
       <use xlink:href="#Inter-Regular-50f" transform="translate(65.90889 0.214063)"/>
       <use xlink:href="#Inter-Regular-50e" transform="translate(112.357605 0.214063)"/>
       <use xlink:href="#Inter-Regular-595" transform="translate(175.811992 38.396875) scale(0.7)"/>
       <use xlink:href="#Inter-Regular-512" transform="translate(221.948215 38.396875) scale(0.7)"/>
      </g>
     </g>
    </g>
    <g id="ytick_9">
     <g id="line2d_30">
      <path d="M 598.683077 254.46159
L 977.76 254.46159
" clip-path="url(#p05b05a7b3d)" style="fill: none; stroke: #b0b0b0; stroke-opacity: 0.18; stroke-width: 0.8; stroke-linecap: square"/>
     </g>
     <g id="line2d_31">
      <g>
       <use xlink:href="#m47b9872957" x="598.683077" y="254.46159" style="fill: #555555; stroke: #555555; stroke-width: 0.8"/>
      </g>
     </g>
     <g id="text_25">
      <!-- $\mathdefault{-10^{-4}}$ -->
      <g style="fill: #555555" transform="translate(559.283077 260.27409) scale(0.12 -0.12)">
       <use xlink:href="#Inter-Regular-595" transform="translate(0 0.903125)"/>
       <use xlink:href="#Inter-Regular-50f" transform="translate(65.90889 0.903125)"/>
       <use xlink:href="#Inter-Regular-50e" transform="translate(112.357605 0.903125)"/>
       <use xlink:href="#Inter-Regular-595" transform="translate(175.811992 39.085938) scale(0.7)"/>
       <use xlink:href="#Inter-Regular-513" transform="translate(221.948215 39.085938) scale(0.7)"/>
      </g>
     </g>
    </g>
    <g id="ytick_10">
     <g id="line2d_32">
      <path d="M 598.683077 226.333644
L 977.76 226.333644
" clip-path="url(#p05b05a7b3d)" style="fill: none; stroke: #b0b0b0; stroke-opacity: 0.18; stroke-width: 0.8; stroke-linecap: square"/>
     </g>
     <g id="line2d_33">
      <g>
       <use xlink:href="#m47b9872957" x="598.683077" y="226.333644" style="fill: #555555; stroke: #555555; stroke-width: 0.8"/>
      </g>
     </g>
     <g id="text_26">
      <!-- $\mathdefault{0}$ -->
      <g style="fill: #555555" transform="translate(584.123077 232.146144) scale(0.12 -0.12)">
       <use xlink:href="#Inter-Regular-50e" transform="translate(0 0.28125)"/>
      </g>
     </g>
    </g>
    <g id="ytick_11">
     <g id="line2d_34">
      <path d="M 598.683077 198.205697
L 977.76 198.205697
" clip-path="url(#p05b05a7b3d)" style="fill: none; stroke: #b0b0b0; stroke-opacity: 0.18; stroke-width: 0.8; stroke-linecap: square"/>
     </g>
     <g id="line2d_35">
      <g>
       <use xlink:href="#m47b9872957" x="598.683077" y="198.205697" style="fill: #555555; stroke: #555555; stroke-width: 0.8"/>
      </g>
     </g>
     <g id="text_27">
      <!-- $\mathdefault{10^{-4}}$ -->
      <g style="fill: #555555" transform="translate(567.203077 204.018197) scale(0.12 -0.12)">
       <use xlink:href="#Inter-Regular-50f" transform="translate(0 0.903125)"/>
       <use xlink:href="#Inter-Regular-50e" transform="translate(46.448715 0.903125)"/>
       <use xlink:href="#Inter-Regular-595" transform="translate(109.903102 39.085938) scale(0.7)"/>
       <use xlink:href="#Inter-Regular-513" transform="translate(156.039325 39.085938) scale(0.7)"/>
      </g>
     </g>
    </g>
    <g id="ytick_12">
     <g id="line2d_36">
      <path d="M 598.683077 172.890545
L 977.76 172.890545
" clip-path="url(#p05b05a7b3d)" style="fill: none; stroke: #b0b0b0; stroke-opacity: 0.18; stroke-width: 0.8; stroke-linecap: square"/>
     </g>
     <g id="line2d_37">
      <g>
       <use xlink:href="#m47b9872957" x="598.683077" y="172.890545" style="fill: #555555; stroke: #555555; stroke-width: 0.8"/>
      </g>
     </g>
     <g id="text_28">
      <!-- $\mathdefault{10^{-3}}$ -->
      <g style="fill: #555555" transform="translate(567.203077 178.703045) scale(0.12 -0.12)">
       <use xlink:href="#Inter-Regular-50f" transform="translate(0 0.214063)"/>
       <use xlink:href="#Inter-Regular-50e" transform="translate(46.448715 0.214063)"/>
       <use xlink:href="#Inter-Regular-595" transform="translate(109.903102 38.396875) scale(0.7)"/>
       <use xlink:href="#Inter-Regular-512" transform="translate(156.039325 38.396875) scale(0.7)"/>
      </g>
     </g>
    </g>
    <g id="ytick_13">
     <g id="line2d_38">
      <path d="M 598.683077 147.575393
L 977.76 147.575393
" clip-path="url(#p05b05a7b3d)" style="fill: none; stroke: #b0b0b0; stroke-opacity: 0.18; stroke-width: 0.8; stroke-linecap: square"/>
     </g>
     <g id="line2d_39">
      <g>
       <use xlink:href="#m47b9872957" x="598.683077" y="147.575393" style="fill: #555555; stroke: #555555; stroke-width: 0.8"/>
      </g>
     </g>
     <g id="text_29">
      <!-- $\mathdefault{10^{-2}}$ -->
      <g style="fill: #555555" transform="translate(567.443077 153.387893) scale(0.12 -0.12)">
       <use xlink:href="#Inter-Regular-50f" transform="translate(0 0.214063)"/>
       <use xlink:href="#Inter-Regular-50e" transform="translate(46.448715 0.214063)"/>
       <use xlink:href="#Inter-Regular-595" transform="translate(109.903102 38.396875) scale(0.7)"/>
       <use xlink:href="#Inter-Regular-510" transform="translate(156.039325 38.396875) scale(0.7)"/>
      </g>
     </g>
    </g>
    <g id="ytick_14">
     <g id="line2d_40">
      <path d="M 598.683077 122.26024
L 977.76 122.26024
" clip-path="url(#p05b05a7b3d)" style="fill: none; stroke: #b0b0b0; stroke-opacity: 0.18; stroke-width: 0.8; stroke-linecap: square"/>
     </g>
     <g id="line2d_41">
      <g>
       <use xlink:href="#m47b9872957" x="598.683077" y="122.26024" style="fill: #555555; stroke: #555555; stroke-width: 0.8"/>
      </g>
     </g>
     <g id="text_30">
      <!-- $\mathdefault{10^{-1}}$ -->
      <g style="fill: #555555" transform="translate(568.643077 128.07274) scale(0.12 -0.12)">
       <use xlink:href="#Inter-Regular-50f" transform="translate(0 0.903125)"/>
       <use xlink:href="#Inter-Regular-50e" transform="translate(46.448715 0.903125)"/>
       <use xlink:href="#Inter-Regular-595" transform="translate(109.903102 39.085938) scale(0.7)"/>
       <use xlink:href="#Inter-Regular-50f" transform="translate(156.039325 39.085938) scale(0.7)"/>
      </g>
     </g>
    </g>
    <g id="text_31">
     <!-- $\Delta_n$ -->
     <g style="fill: #252525" transform="translate(552.38535 222.78) rotate(-90) scale(0.12 -0.12)">
      <defs>
       <path id="Inter-Regular-3db" d="M 164 0
L 1873 4655
L 2455 4655
L 4164 0
L 164 0
z
M 936 500
L 3391 500
L 2182 3918
L 2145 3918
L 936 500
z
" transform="scale(0.015625)"/>
      </defs>
      <use xlink:href="#Inter-Regular-3db" transform="translate(0 0.265625)"/>
      <use xlink:href="#Inter-Regular-2f7" transform="translate(68.568004 -16.098438) scale(0.7)"/>
     </g>
    </g>
   </g>
   <g id="line2d_42">
    <path d="M 615.913846 113.890909
L 622.17958 318.109091
L 628.445315 134.449838
L 634.711049 162.991965
L 640.976783 148.993392
L 647.242517 157.642201
L 653.508252 157.773657
L 659.773986 161.586892
L 666.03972 163.479852
L 672.305455 165.923765
L 678.571189 167.891453
L 684.836923 169.850074
L 691.102657 171.633334
L 697.368392 173.331729
L 703.634126 174.927036
L 709.89986 176.441724
L 716.165594 177.879613
L 722.431329 179.249957
L 728.697063 180.558337
L 734.962797 181.8105
L 741.228531 183.011097
L 747.494266 184.164342
L 753.76 185.273897
L 760.025734 186.343029
L 766.291469 187.374638
L 772.557203 188.371324
L 778.822937 189.33542
L 785.088671 190.269032
L 791.354406 191.174064
L 797.62014 192.052247
L 803.885874 192.905155
L 810.151608 193.73423
L 816.417343 194.540788
L 822.683077 195.326042
L 828.948811 196.091107
L 835.214545 196.837011
L 841.48028 197.564705
L 847.746014 198.382631
L 854.011748 200.09214
L 860.277483 201.66178
L 866.543217 203.105782
L 872.808951 204.436656
L 879.074685 205.665431
L 885.34042 206.801855
L 891.606154 207.854571
L 897.871888 208.831259
L 904.137622 209.738759
L 910.403357 210.583179
L 916.669091 211.369984
L 922.934825 212.104075
L 929.200559 212.789858
L 935.466294 213.431297
L 941.732028 214.031969
L 947.997762 214.595109
L 954.263497 215.123643
L 960.529231 215.620225
" clip-path="url(#p05b05a7b3d)" style="fill: none; stroke: #146356; stroke-width: 1.5; stroke-linecap: square"/>
    <defs>
     <path id="m1f44b51d78" d="M 0 1.25
C 0.331504 1.25 0.649475 1.118292 0.883883 0.883883
C 1.118292 0.649475 1.25 0.331504 1.25 0
C 1.25 -0.331504 1.118292 -0.649475 0.883883 -0.883883
C 0.649475 -1.118292 0.331504 -1.25 0 -1.25
C -0.331504 -1.25 -0.649475 -1.118292 -0.883883 -0.883883
C -1.118292 -0.649475 -1.25 -0.331504 -1.25 0
C -1.25 0.331504 -1.118292 0.649475 -0.883883 0.883883
C -0.649475 1.118292 -0.331504 1.25 0 1.25
z
" style="stroke: #146356"/>
    </defs>
    <g clip-path="url(#p05b05a7b3d)">
     <use xlink:href="#m1f44b51d78" x="615.913846" y="113.890909" style="fill: #146356; stroke: #146356"/>
     <use xlink:href="#m1f44b51d78" x="622.17958" y="318.109091" style="fill: #146356; stroke: #146356"/>
     <use xlink:href="#m1f44b51d78" x="628.445315" y="134.449838" style="fill: #146356; stroke: #146356"/>
     <use xlink:href="#m1f44b51d78" x="634.711049" y="162.991965" style="fill: #146356; stroke: #146356"/>
     <use xlink:href="#m1f44b51d78" x="640.976783" y="148.993392" style="fill: #146356; stroke: #146356"/>
     <use xlink:href="#m1f44b51d78" x="647.242517" y="157.642201" style="fill: #146356; stroke: #146356"/>
     <use xlink:href="#m1f44b51d78" x="653.508252" y="157.773657" style="fill: #146356; stroke: #146356"/>
     <use xlink:href="#m1f44b51d78" x="659.773986" y="161.586892" style="fill: #146356; stroke: #146356"/>
     <use xlink:href="#m1f44b51d78" x="666.03972" y="163.479852" style="fill: #146356; stroke: #146356"/>
     <use xlink:href="#m1f44b51d78" x="672.305455" y="165.923765" style="fill: #146356; stroke: #146356"/>
     <use xlink:href="#m1f44b51d78" x="678.571189" y="167.891453" style="fill: #146356; stroke: #146356"/>
     <use xlink:href="#m1f44b51d78" x="684.836923" y="169.850074" style="fill: #146356; stroke: #146356"/>
     <use xlink:href="#m1f44b51d78" x="691.102657" y="171.633334" style="fill: #146356; stroke: #146356"/>
     <use xlink:href="#m1f44b51d78" x="697.368392" y="173.331729" style="fill: #146356; stroke: #146356"/>
     <use xlink:href="#m1f44b51d78" x="703.634126" y="174.927036" style="fill: #146356; stroke: #146356"/>
     <use xlink:href="#m1f44b51d78" x="709.89986" y="176.441724" style="fill: #146356; stroke: #146356"/>
     <use xlink:href="#m1f44b51d78" x="716.165594" y="177.879613" style="fill: #146356; stroke: #146356"/>
     <use xlink:href="#m1f44b51d78" x="722.431329" y="179.249957" style="fill: #146356; stroke: #146356"/>
     <use xlink:href="#m1f44b51d78" x="728.697063" y="180.558337" style="fill: #146356; stroke: #146356"/>
     <use xlink:href="#m1f44b51d78" x="734.962797" y="181.8105" style="fill: #146356; stroke: #146356"/>
     <use xlink:href="#m1f44b51d78" x="741.228531" y="183.011097" style="fill: #146356; stroke: #146356"/>
     <use xlink:href="#m1f44b51d78" x="747.494266" y="184.164342" style="fill: #146356; stroke: #146356"/>
     <use xlink:href="#m1f44b51d78" x="753.76" y="185.273897" style="fill: #146356; stroke: #146356"/>
     <use xlink:href="#m1f44b51d78" x="760.025734" y="186.343029" style="fill: #146356; stroke: #146356"/>
     <use xlink:href="#m1f44b51d78" x="766.291469" y="187.374638" style="fill: #146356; stroke: #146356"/>
     <use xlink:href="#m1f44b51d78" x="772.557203" y="188.371324" style="fill: #146356; stroke: #146356"/>
     <use xlink:href="#m1f44b51d78" x="778.822937" y="189.33542" style="fill: #146356; stroke: #146356"/>
     <use xlink:href="#m1f44b51d78" x="785.088671" y="190.269032" style="fill: #146356; stroke: #146356"/>
     <use xlink:href="#m1f44b51d78" x="791.354406" y="191.174064" style="fill: #146356; stroke: #146356"/>
     <use xlink:href="#m1f44b51d78" x="797.62014" y="192.052247" style="fill: #146356; stroke: #146356"/>
     <use xlink:href="#m1f44b51d78" x="803.885874" y="192.905155" style="fill: #146356; stroke: #146356"/>
     <use xlink:href="#m1f44b51d78" x="810.151608" y="193.73423" style="fill: #146356; stroke: #146356"/>
     <use xlink:href="#m1f44b51d78" x="816.417343" y="194.540788" style="fill: #146356; stroke: #146356"/>
     <use xlink:href="#m1f44b51d78" x="822.683077" y="195.326042" style="fill: #146356; stroke: #146356"/>
     <use xlink:href="#m1f44b51d78" x="828.948811" y="196.091107" style="fill: #146356; stroke: #146356"/>
     <use xlink:href="#m1f44b51d78" x="835.214545" y="196.837011" style="fill: #146356; stroke: #146356"/>
     <use xlink:href="#m1f44b51d78" x="841.48028" y="197.564705" style="fill: #146356; stroke: #146356"/>
     <use xlink:href="#m1f44b51d78" x="847.746014" y="198.382631" style="fill: #146356; stroke: #146356"/>
     <use xlink:href="#m1f44b51d78" x="854.011748" y="200.09214" style="fill: #146356; stroke: #146356"/>
     <use xlink:href="#m1f44b51d78" x="860.277483" y="201.66178" style="fill: #146356; stroke: #146356"/>
     <use xlink:href="#m1f44b51d78" x="866.543217" y="203.105782" style="fill: #146356; stroke: #146356"/>
     <use xlink:href="#m1f44b51d78" x="872.808951" y="204.436656" style="fill: #146356; stroke: #146356"/>
     <use xlink:href="#m1f44b51d78" x="879.074685" y="205.665431" style="fill: #146356; stroke: #146356"/>
     <use xlink:href="#m1f44b51d78" x="885.34042" y="206.801855" style="fill: #146356; stroke: #146356"/>
     <use xlink:href="#m1f44b51d78" x="891.606154" y="207.854571" style="fill: #146356; stroke: #146356"/>
     <use xlink:href="#m1f44b51d78" x="897.871888" y="208.831259" style="fill: #146356; stroke: #146356"/>
     <use xlink:href="#m1f44b51d78" x="904.137622" y="209.738759" style="fill: #146356; stroke: #146356"/>
     <use xlink:href="#m1f44b51d78" x="910.403357" y="210.583179" style="fill: #146356; stroke: #146356"/>
     <use xlink:href="#m1f44b51d78" x="916.669091" y="211.369984" style="fill: #146356; stroke: #146356"/>
     <use xlink:href="#m1f44b51d78" x="922.934825" y="212.104075" style="fill: #146356; stroke: #146356"/>
     <use xlink:href="#m1f44b51d78" x="929.200559" y="212.789858" style="fill: #146356; stroke: #146356"/>
     <use xlink:href="#m1f44b51d78" x="935.466294" y="213.431297" style="fill: #146356; stroke: #146356"/>
     <use xlink:href="#m1f44b51d78" x="941.732028" y="214.031969" style="fill: #146356; stroke: #146356"/>
     <use xlink:href="#m1f44b51d78" x="947.997762" y="214.595109" style="fill: #146356; stroke: #146356"/>
     <use xlink:href="#m1f44b51d78" x="954.263497" y="215.123643" style="fill: #146356; stroke: #146356"/>
     <use xlink:href="#m1f44b51d78" x="960.529231" y="215.620225" style="fill: #146356; stroke: #146356"/>
    </g>
   </g>
   <g id="line2d_43">
    <path d="M 598.683077 226.333644
L 977.76 226.333644
" clip-path="url(#p05b05a7b3d)" style="fill: none; stroke: #777777; stroke-width: 0.8; stroke-linecap: square"/>
   </g>
   <g id="patch_6">
    <path d="M 598.683077 328.32
L 598.683077 103.68
" style="fill: none; stroke: #000000; stroke-width: 0.8; stroke-linejoin: miter; stroke-linecap: square"/>
   </g>
   <g id="patch_7">
    <path d="M 598.683077 328.32
L 977.76 328.32
" style="fill: none; stroke: #000000; stroke-width: 0.8; stroke-linejoin: miter; stroke-linecap: square"/>
   </g>
   <g id="patch_8">
    <path d="M 699.63848 309.708431
Q 661.904215 313.80083 625.281465 317.772682
" style="fill: none; stroke: #b23735; stroke-linecap: round"/>
    <path d="M 630.312253 319.64115
L 625.281465 317.772682
L 629.794713 314.869133
" style="fill: none; stroke: #b23735; stroke-linecap: round"/>
   </g>
   <g id="text_32">
    <!-- Center 5 fails -->
    <g style="fill: #b23735" transform="translate(703.634126 309.549672) scale(0.12 -0.12)">
     <defs>
      <path id="Inter-Regular-285" d="M 2045 3491
L 2045 3036
L 164 3036
L 164 3491
L 2045 3491
z
M 727 0
L 727 3973
Q 727 4273 868 4473
Q 1009 4673 1234 4773
Q 1459 4873 1709 4873
Q 1907 4873 2032 4841
Q 2157 4809 2218 4782
L 2064 4318
Q 2023 4332 1951 4352
Q 1880 4373 1764 4373
Q 1498 4373 1381 4239
Q 1264 4105 1264 3845
L 1264 0
L 727 0
z
" transform="scale(0.015625)"/>
      <path id="Inter-Regular-1f8" d="M 1518 -82
Q 1186 -82 915 44
Q 645 170 486 410
Q 327 650 327 991
Q 327 1291 445 1478
Q 564 1666 761 1773
Q 959 1880 1199 1933
Q 1439 1986 1682 2018
Q 2000 2059 2199 2080
Q 2398 2102 2490 2154
Q 2582 2207 2582 2336
L 2582 2355
Q 2582 2691 2399 2877
Q 2216 3064 1845 3064
Q 1461 3064 1243 2895
Q 1025 2727 936 2536
L 427 2718
Q 564 3036 792 3214
Q 1020 3393 1292 3464
Q 1564 3536 1827 3536
Q 1995 3536 2214 3496
Q 2434 3457 2639 3334
Q 2845 3211 2981 2963
Q 3118 2716 3118 2300
L 3118 0
L 2582 0
L 2582 473
L 2555 473
Q 2500 359 2372 229
Q 2245 100 2034 9
Q 1823 -82 1518 -82
z
M 1600 400
Q 1918 400 2137 525
Q 2357 650 2469 847
Q 2582 1045 2582 1264
L 2582 1755
Q 2548 1714 2433 1681
Q 2318 1648 2169 1624
Q 2020 1600 1880 1583
Q 1741 1566 1655 1555
Q 1445 1527 1264 1467
Q 1084 1407 974 1287
Q 864 1168 864 964
Q 864 684 1072 542
Q 1280 400 1600 400
z
" transform="scale(0.015625)"/>
      <path id="Inter-Regular-2a7" d="M 491 0
L 491 3491
L 1027 3491
L 1027 0
L 491 0
z
M 764 4073
Q 607 4073 494 4179
Q 382 4286 382 4436
Q 382 4586 494 4693
Q 607 4800 764 4800
Q 920 4800 1032 4693
Q 1145 4586 1145 4436
Q 1145 4286 1032 4179
Q 920 4073 764 4073
z
" transform="scale(0.015625)"/>
      <path id="Inter-Regular-2d3" d="M 1027 4655
L 1027 0
L 491 0
L 491 4655
L 1027 4655
z
" transform="scale(0.015625)"/>
      <path id="Inter-Regular-363" d="M 2964 2709
L 2482 2573
Q 2436 2693 2348 2808
Q 2261 2923 2111 2998
Q 1961 3073 1727 3073
Q 1407 3073 1194 2926
Q 982 2780 982 2555
Q 982 2355 1127 2239
Q 1273 2123 1582 2045
L 2100 1918
Q 2568 1805 2797 1572
Q 3027 1339 3027 973
Q 3027 673 2855 436
Q 2684 200 2377 63
Q 2070 -73 1664 -73
Q 1130 -73 780 159
Q 430 391 336 836
L 845 964
Q 918 682 1121 541
Q 1325 400 1655 400
Q 2030 400 2251 560
Q 2473 720 2473 945
Q 2473 1127 2345 1251
Q 2218 1375 1955 1436
L 1373 1573
Q 893 1686 669 1926
Q 445 2166 445 2527
Q 445 2823 612 3050
Q 780 3277 1069 3406
Q 1359 3536 1727 3536
Q 2245 3536 2542 3309
Q 2839 3082 2964 2709
z
" transform="scale(0.015625)"/>
     </defs>
     <use xlink:href="#Inter-Regular-49"/>
     <use xlink:href="#Inter-Regular-264" transform="translate(72.734375 0)"/>
     <use xlink:href="#Inter-Regular-2f7" transform="translate(130.96875 0)"/>
     <use xlink:href="#Inter-Regular-374" transform="translate(189.484375 0)"/>
     <use xlink:href="#Inter-Regular-264" transform="translate(225.28125 0)"/>
     <use xlink:href="#Inter-Regular-345" transform="translate(283.515625 0)"/>
     <use xlink:href="#Inter-Regular-691" transform="translate(320.734375 0)"/>
     <use xlink:href="#Inter-Regular-514" transform="translate(348.859375 0)"/>
     <use xlink:href="#Inter-Regular-691" transform="translate(409.65625 0)"/>
     <use xlink:href="#Inter-Regular-285" transform="translate(437.78125 0)"/>
     <use xlink:href="#Inter-Regular-1f8" transform="translate(472.296875 0)"/>
     <use xlink:href="#Inter-Regular-2a7" transform="translate(528.6875 0)"/>
     <use xlink:href="#Inter-Regular-2d3" transform="translate(552.40625 0)"/>
     <use xlink:href="#Inter-Regular-363" transform="translate(576.125 0)"/>
    </g>
   </g>
   <g id="text_33">
    <!-- Log-concavity margin (symmetric log scale) -->
    <g style="fill: #252525" transform="translate(637.180132 97.68) scale(0.14 -0.14)">
     <defs>
      <path id="Inter-Bold-118" d="M 405 0
L 405 4655
L 1389 4655
L 1389 811
L 3384 811
L 3384 0
L 405 0
z
" transform="scale(0.015625)"/>
      <path id="Inter-Bold-28a" d="M 1959 -1382
Q 1489 -1382 1153 -1253
Q 818 -1125 620 -904
Q 423 -684 364 -409
L 1259 -289
Q 1300 -393 1388 -484
Q 1477 -575 1623 -630
Q 1770 -686 1982 -686
Q 2298 -686 2503 -533
Q 2709 -380 2709 -20
L 2709 618
L 2668 618
Q 2605 473 2477 343
Q 2350 214 2150 132
Q 1950 50 1673 50
Q 1280 50 958 233
Q 636 416 446 794
Q 257 1173 257 1752
Q 257 2345 450 2743
Q 643 3141 964 3338
Q 1286 3536 1670 3536
Q 1964 3536 2161 3437
Q 2359 3339 2480 3192
Q 2602 3045 2668 2905
L 2705 2905
L 2705 3491
L 3666 3491
L 3666 -34
Q 3666 -480 3448 -780
Q 3230 -1080 2844 -1231
Q 2459 -1382 1959 -1382
z
M 1980 777
Q 2214 777 2376 894
Q 2539 1011 2626 1230
Q 2714 1450 2714 1757
Q 2714 2064 2627 2290
Q 2541 2516 2377 2641
Q 2214 2766 1980 2766
Q 1741 2766 1577 2637
Q 1414 2509 1329 2282
Q 1245 2055 1245 1757
Q 1245 1455 1330 1235
Q 1416 1016 1578 896
Q 1741 777 1980 777
z
" transform="scale(0.015625)"/>
      <path id="Inter-Bold-551" d="M 2561 2295
L 2561 1527
L 439 1527
L 439 2295
L 2561 2295
z
" transform="scale(0.015625)"/>
      <path id="Inter-Bold-1f8" d="M 1382 -66
Q 1048 -66 786 51
Q 525 168 374 399
Q 223 630 223 975
Q 223 1266 329 1463
Q 436 1661 620 1781
Q 805 1902 1040 1963
Q 1275 2025 1534 2050
Q 1839 2082 2025 2110
Q 2211 2139 2295 2195
Q 2380 2252 2380 2364
L 2380 2377
Q 2380 2593 2244 2711
Q 2109 2830 1861 2830
Q 1600 2830 1445 2715
Q 1291 2600 1241 2427
L 345 2500
Q 414 2818 614 3051
Q 814 3284 1131 3410
Q 1448 3536 1866 3536
Q 2157 3536 2424 3468
Q 2691 3400 2899 3257
Q 3107 3114 3227 2890
Q 3348 2666 3348 2355
L 3348 0
L 2430 0
L 2430 484
L 2402 484
Q 2318 320 2177 196
Q 2036 73 1838 3
Q 1641 -66 1382 -66
z
M 1659 602
Q 1873 602 2036 687
Q 2200 773 2293 918
Q 2386 1064 2386 1248
L 2386 1618
Q 2341 1589 2262 1565
Q 2184 1541 2086 1521
Q 1989 1502 1891 1487
Q 1793 1473 1714 1461
Q 1543 1436 1416 1381
Q 1289 1327 1218 1235
Q 1148 1143 1148 1007
Q 1148 809 1292 705
Q 1436 602 1659 602
z
" transform="scale(0.015625)"/>
      <path id="Inter-Bold-3a4" d="M 3641 3491
L 2420 0
L 1330 0
L 109 3491
L 1132 3491
L 1857 993
L 1893 993
L 2616 3491
L 3641 3491
z
" transform="scale(0.015625)"/>
      <path id="Inter-Bold-2a7" d="M 386 0
L 386 3491
L 1355 3491
L 1355 0
L 386 0
z
M 873 3941
Q 657 3941 503 4085
Q 350 4230 350 4432
Q 350 4632 503 4776
Q 657 4920 873 4920
Q 1089 4920 1242 4776
Q 1395 4632 1395 4432
Q 1395 4230 1242 4085
Q 1089 3941 873 3941
z
" transform="scale(0.015625)"/>
      <path id="Inter-Bold-3b6" d="M 984 -1309
Q 800 -1309 640 -1280
Q 480 -1252 375 -1209
L 593 -486
Q 764 -539 901 -543
Q 1039 -548 1140 -479
Q 1241 -411 1305 -248
L 1361 -100
L 109 3491
L 1127 3491
L 1850 927
L 1886 927
L 2616 3491
L 3641 3491
L 2284 -377
Q 2186 -659 2019 -869
Q 1852 -1080 1597 -1194
Q 1343 -1309 984 -1309
z
" transform="scale(0.015625)"/>
      <path id="Inter-Bold-2f0" d="M 386 0
L 386 3491
L 1309 3491
L 1309 2875
L 1350 2875
Q 1459 3182 1713 3359
Q 1968 3536 2323 3536
Q 2682 3536 2934 3358
Q 3186 3180 3270 2875
L 3307 2875
Q 3414 3175 3694 3355
Q 3975 3536 4359 3536
Q 4848 3536 5153 3226
Q 5459 2916 5459 2348
L 5459 0
L 4493 0
L 4493 2157
Q 4493 2448 4338 2593
Q 4184 2739 3952 2739
Q 3689 2739 3541 2572
Q 3393 2405 3393 2132
L 3393 0
L 2455 0
L 2455 2177
Q 2455 2434 2308 2586
Q 2161 2739 1923 2739
Q 1761 2739 1633 2658
Q 1505 2577 1430 2433
Q 1355 2289 1355 2095
L 1355 0
L 386 0
z
" transform="scale(0.015625)"/>
      <path id="Inter-Bold-53b" d="M 600 1866
Q 600 2711 826 3422
Q 1052 4134 1518 4741
L 2443 4741
Q 2266 4516 2113 4192
Q 1961 3868 1847 3481
Q 1734 3095 1670 2682
Q 1607 2270 1607 1866
Q 1607 1327 1717 778
Q 1827 230 2017 -240
Q 2207 -711 2443 -1011
L 1518 -1011
Q 1052 -405 826 306
Q 600 1018 600 1866
z
" transform="scale(0.015625)"/>
      <path id="Inter-Bold-2d3" d="M 1355 4655
L 1355 0
L 386 0
L 386 4655
L 1355 4655
z
" transform="scale(0.015625)"/>
      <path id="Inter-Bold-53c" d="M 2018 1866
Q 2018 1018 1792 306
Q 1566 -405 1100 -1011
L 175 -1011
Q 352 -786 504 -461
Q 657 -136 770 249
Q 884 634 947 1047
Q 1011 1461 1011 1866
Q 1011 2405 901 2953
Q 791 3502 601 3971
Q 411 4441 175 4741
L 1100 4741
Q 1566 4134 1792 3422
Q 2018 2711 2018 1866
z
" transform="scale(0.015625)"/>
     </defs>
     <use xlink:href="#Inter-Bold-118"/>
     <use xlink:href="#Inter-Bold-307" transform="translate(56.75 0)"/>
     <use xlink:href="#Inter-Bold-28a" transform="translate(118.109375 0)"/>
     <use xlink:href="#Inter-Bold-551" transform="translate(181.421875 0)"/>
     <use xlink:href="#Inter-Bold-246" transform="translate(228.296875 0)"/>
     <use xlink:href="#Inter-Bold-307" transform="translate(287.03125 0)"/>
     <use xlink:href="#Inter-Bold-2f7" transform="translate(348.390625 0)"/>
     <use xlink:href="#Inter-Bold-246" transform="translate(410.578125 0)"/>
     <use xlink:href="#Inter-Bold-1f8" transform="translate(469.3125 0)"/>
     <use xlink:href="#Inter-Bold-3a4" transform="translate(525.359375 0)"/>
     <use xlink:href="#Inter-Bold-2a7" transform="translate(583.953125 0)"/>
     <use xlink:href="#Inter-Bold-374" transform="translate(611.15625 0)"/>
     <use xlink:href="#Inter-Bold-3b6" transform="translate(650 0)"/>
     <use xlink:href="#Inter-Bold-691" transform="translate(708.59375 0)"/>
     <use xlink:href="#Inter-Bold-2f0" transform="translate(731.78125 0)"/>
     <use xlink:href="#Inter-Bold-1f8" transform="translate(822.96875 0)"/>
     <use xlink:href="#Inter-Bold-345" transform="translate(881 0)"/>
     <use xlink:href="#Inter-Bold-28a" transform="translate(919.3125 0)"/>
     <use xlink:href="#Inter-Bold-2a7" transform="translate(982.625 0)"/>
     <use xlink:href="#Inter-Bold-2f7" transform="translate(1009.828125 0)"/>
     <use xlink:href="#Inter-Bold-691" transform="translate(1072.015625 0)"/>
     <use xlink:href="#Inter-Bold-53b" transform="translate(1095.203125 0)"/>
     <use xlink:href="#Inter-Bold-363" transform="translate(1136.109375 0)"/>
     <use xlink:href="#Inter-Bold-3b6" transform="translate(1192.28125 0)"/>
     <use xlink:href="#Inter-Bold-2f0" transform="translate(1250.875 0)"/>
     <use xlink:href="#Inter-Bold-2f0" transform="translate(1342.0625 0)"/>
     <use xlink:href="#Inter-Bold-264" transform="translate(1433.25 0)"/>
     <use xlink:href="#Inter-Bold-374" transform="translate(1493.015625 0)"/>
     <use xlink:href="#Inter-Bold-345" transform="translate(1531.859375 0)"/>
     <use xlink:href="#Inter-Bold-2a7" transform="translate(1572.734375 0)"/>
     <use xlink:href="#Inter-Bold-246" transform="translate(1599.9375 0)"/>
     <use xlink:href="#Inter-Bold-691" transform="translate(1658.671875 0)"/>
     <use xlink:href="#Inter-Bold-2d3" transform="translate(1681.859375 0)"/>
     <use xlink:href="#Inter-Bold-307" transform="translate(1709.0625 0)"/>
     <use xlink:href="#Inter-Bold-28a" transform="translate(1770.421875 0)"/>
     <use xlink:href="#Inter-Bold-691" transform="translate(1833.734375 0)"/>
     <use xlink:href="#Inter-Bold-363" transform="translate(1856.921875 0)"/>
     <use xlink:href="#Inter-Bold-246" transform="translate(1913.09375 0)"/>
     <use xlink:href="#Inter-Bold-1f8" transform="translate(1971.828125 0)"/>
     <use xlink:href="#Inter-Bold-2d3" transform="translate(2029.859375 0)"/>
     <use xlink:href="#Inter-Bold-264" transform="translate(2057.0625 0)"/>
     <use xlink:href="#Inter-Bold-53c" transform="translate(2116.828125 0)"/>
    </g>
   </g>
   <g id="PathCollection_1">
    <defs>
     <path id="m5f6060c6e0" d="M 0 3.354102
C 0.889518 3.354102 1.742724 3.000693 2.371708 2.371708
C 3.000693 1.742724 3.354102 0.889518 3.354102 0
C 3.354102 -0.889518 3.000693 -1.742724 2.371708 -2.371708
C 1.742724 -3.000693 0.889518 -3.354102 0 -3.354102
C -0.889518 -3.354102 -1.742724 -3.000693 -2.371708 -2.371708
C -3.000693 -1.742724 -3.354102 -0.889518 -3.354102 0
C -3.354102 0.889518 -3.000693 1.742724 -2.371708 2.371708
C -1.742724 3.000693 -0.889518 3.354102 0 3.354102
z
" style="stroke: #b23735"/>
    </defs>
    <g clip-path="url(#p05b05a7b3d)">
     <use xlink:href="#m5f6060c6e0" x="622.17958" y="318.109091" style="fill: #b23735; stroke: #b23735"/>
    </g>
   </g>
  </g>
  <g id="text_34">
   <!-- Alternating Motzkin roots: a sharp threshold -->
   <g style="fill: #252525" transform="translate(80.64 40.53) scale(0.24 -0.24)">
    <defs>
     <path id="Inter-Bold-2" d="M 1207 0
L 152 0
L 1759 4655
L 3027 4655
L 4632 0
L 3577 0
L 2411 3591
L 2375 3591
L 1207 0
z
M 1141 1830
L 3632 1830
L 3632 1061
L 1141 1061
L 1141 1830
z
" transform="scale(0.015625)"/>
     <path id="Inter-Bold-123" d="M 405 4655
L 1618 4655
L 2900 1527
L 2955 1527
L 4236 4655
L 5450 4655
L 5450 0
L 4495 0
L 4495 3030
L 4457 3030
L 3252 23
L 2602 23
L 1398 3041
L 1359 3041
L 1359 0
L 405 0
L 405 4655
z
" transform="scale(0.015625)"/>
     <path id="Inter-Bold-3cd" d="M 368 0
L 368 577
L 2077 2693
L 2077 2718
L 427 2718
L 427 3491
L 3243 3491
L 3243 2861
L 1639 798
L 1639 773
L 3302 773
L 3302 0
L 368 0
z
" transform="scale(0.015625)"/>
     <path id="Inter-Bold-2cb" d="M 1264 1005
L 1266 2166
L 1407 2166
L 2525 3491
L 3636 3491
L 2134 1736
L 1905 1736
L 1264 1005
z
M 386 0
L 386 4655
L 1355 4655
L 1355 0
L 386 0
z
M 2568 0
L 1541 1520
L 2186 2205
L 3702 0
L 2568 0
z
" transform="scale(0.015625)"/>
     <path id="Inter-Bold-57f" d="M 952 -59
Q 727 -59 567 101
Q 407 261 407 486
Q 407 709 567 868
Q 727 1027 952 1027
Q 1170 1027 1334 868
Q 1498 709 1498 486
Q 1498 336 1421 212
Q 1345 89 1222 15
Q 1100 -59 952 -59
z
M 952 2386
Q 727 2386 567 2545
Q 407 2705 407 2932
Q 407 3155 567 3312
Q 727 3470 952 3470
Q 1170 3470 1334 3312
Q 1498 3155 1498 2932
Q 1498 2780 1421 2656
Q 1345 2532 1222 2459
Q 1100 2386 952 2386
z
" transform="scale(0.015625)"/>
     <path id="Inter-Bold-33b" d="M 386 -1309
L 386 3491
L 1341 3491
L 1341 2905
L 1384 2905
Q 1448 3045 1569 3192
Q 1691 3339 1887 3437
Q 2084 3536 2377 3536
Q 2759 3536 3082 3337
Q 3405 3139 3598 2740
Q 3791 2341 3791 1741
Q 3791 1157 3603 756
Q 3416 355 3094 149
Q 2773 -57 2375 -57
Q 2093 -57 1896 36
Q 1700 130 1575 272
Q 1450 414 1384 559
L 1355 559
L 1355 -1309
L 386 -1309
z
M 1334 1745
Q 1334 1434 1420 1202
Q 1507 970 1670 842
Q 1834 714 2068 714
Q 2305 714 2468 844
Q 2632 975 2717 1208
Q 2802 1441 2802 1745
Q 2802 2048 2718 2277
Q 2634 2507 2470 2636
Q 2307 2766 2068 2766
Q 1832 2766 1669 2641
Q 1507 2516 1420 2286
Q 1334 2057 1334 1745
z
" transform="scale(0.015625)"/>
     <path id="Inter-Bold-252" d="M 1673 -57
Q 1275 -57 953 149
Q 632 355 444 756
Q 257 1157 257 1741
Q 257 2341 450 2740
Q 643 3139 964 3337
Q 1286 3536 1670 3536
Q 1964 3536 2160 3437
Q 2357 3339 2478 3192
Q 2600 3045 2664 2905
L 2693 2905
L 2693 4655
L 3659 4655
L 3659 0
L 2705 0
L 2705 559
L 2664 559
Q 2595 414 2471 272
Q 2348 130 2151 36
Q 1955 -57 1673 -57
z
M 1980 714
Q 2214 714 2376 842
Q 2539 970 2626 1202
Q 2714 1434 2714 1745
Q 2714 2057 2627 2286
Q 2541 2516 2377 2641
Q 2214 2766 1980 2766
Q 1741 2766 1577 2636
Q 1414 2507 1329 2277
Q 1245 2048 1245 1745
Q 1245 1441 1330 1208
Q 1416 975 1578 844
Q 1741 714 1980 714
z
" transform="scale(0.015625)"/>
    </defs>
    <use xlink:href="#Inter-Bold-2"/>
    <use xlink:href="#Inter-Bold-2d3" transform="translate(74.78125 0)"/>
    <use xlink:href="#Inter-Bold-374" transform="translate(101.984375 0)"/>
    <use xlink:href="#Inter-Bold-264" transform="translate(140.265625 0)"/>
    <use xlink:href="#Inter-Bold-345" transform="translate(200.03125 0)"/>
    <use xlink:href="#Inter-Bold-2f7" transform="translate(240.90625 0)"/>
    <use xlink:href="#Inter-Bold-1f8" transform="translate(303.09375 0)"/>
    <use xlink:href="#Inter-Bold-374" transform="translate(361.125 0)"/>
    <use xlink:href="#Inter-Bold-2a7" transform="translate(399.96875 0)"/>
    <use xlink:href="#Inter-Bold-2f7" transform="translate(427.171875 0)"/>
    <use xlink:href="#Inter-Bold-28a" transform="translate(489.359375 0)"/>
    <use xlink:href="#Inter-Bold-691" transform="translate(552.671875 0)"/>
    <use xlink:href="#Inter-Bold-123" transform="translate(575.859375 0)"/>
    <use xlink:href="#Inter-Bold-307" transform="translate(667.34375 0)"/>
    <use xlink:href="#Inter-Bold-374" transform="translate(728.703125 0)"/>
    <use xlink:href="#Inter-Bold-3cd" transform="translate(767.546875 0)"/>
    <use xlink:href="#Inter-Bold-2cb" transform="translate(824.71875 0)"/>
    <use xlink:href="#Inter-Bold-2a7" transform="translate(882.890625 0)"/>
    <use xlink:href="#Inter-Bold-2f7" transform="translate(910.09375 0)"/>
    <use xlink:href="#Inter-Bold-691" transform="translate(972.28125 0)"/>
    <use xlink:href="#Inter-Bold-345" transform="translate(995.46875 0)"/>
    <use xlink:href="#Inter-Bold-307" transform="translate(1033.78125 0)"/>
    <use xlink:href="#Inter-Bold-307" transform="translate(1095.140625 0)"/>
    <use xlink:href="#Inter-Bold-374" transform="translate(1156.5 0)"/>
    <use xlink:href="#Inter-Bold-363" transform="translate(1194.59375 0)"/>
    <use xlink:href="#Inter-Bold-57f" transform="translate(1250.765625 0)"/>
    <use xlink:href="#Inter-Bold-691" transform="translate(1280.53125 0)"/>
    <use xlink:href="#Inter-Bold-1f8" transform="translate(1303.71875 0)"/>
    <use xlink:href="#Inter-Bold-691" transform="translate(1361.75 0)"/>
    <use xlink:href="#Inter-Bold-363" transform="translate(1384.9375 0)"/>
    <use xlink:href="#Inter-Bold-294" transform="translate(1441.109375 0)"/>
    <use xlink:href="#Inter-Bold-1f8" transform="translate(1503.53125 0)"/>
    <use xlink:href="#Inter-Bold-345" transform="translate(1561.5625 0)"/>
    <use xlink:href="#Inter-Bold-33b" transform="translate(1602.4375 0)"/>
    <use xlink:href="#Inter-Bold-691" transform="translate(1665.6875 0)"/>
    <use xlink:href="#Inter-Bold-374" transform="translate(1688.875 0)"/>
    <use xlink:href="#Inter-Bold-294" transform="translate(1728.859375 0)"/>
    <use xlink:href="#Inter-Bold-345" transform="translate(1791.28125 0)"/>
    <use xlink:href="#Inter-Bold-264" transform="translate(1829.59375 0)"/>
    <use xlink:href="#Inter-Bold-363" transform="translate(1889.359375 0)"/>
    <use xlink:href="#Inter-Bold-294" transform="translate(1945.53125 0)"/>
    <use xlink:href="#Inter-Bold-307" transform="translate(2007.953125 0)"/>
    <use xlink:href="#Inter-Bold-2d3" transform="translate(2069.3125 0)"/>
    <use xlink:href="#Inter-Bold-252" transform="translate(2096.515625 0)"/>
   </g>
  </g>
  <g id="text_35">
   <!-- Lean proves every center n ≥ 6 is positive and center 5 is negative. -->
   <g style="fill: #444444" transform="translate(80.64 376.437273) scale(0.12 -0.12)">
    <defs>
     <path id="Inter-Regular-118" d="M 564 0
L 564 4655
L 1127 4655
L 1127 500
L 3291 500
L 3291 0
L 564 0
z
" transform="scale(0.015625)"/>
     <path id="Inter-Regular-33b" d="M 491 -1309
L 491 3491
L 1009 3491
L 1009 2936
L 1073 2936
Q 1132 3027 1237 3169
Q 1343 3311 1542 3423
Q 1741 3536 2082 3536
Q 2523 3536 2859 3315
Q 3195 3095 3384 2690
Q 3573 2286 3573 1736
Q 3573 1182 3384 776
Q 3195 370 2861 148
Q 2527 -73 2091 -73
Q 1755 -73 1552 39
Q 1350 152 1241 296
Q 1132 441 1073 536
L 1027 536
L 1027 -1309
L 491 -1309
z
M 1018 1745
Q 1018 1350 1134 1049
Q 1250 748 1472 578
Q 1695 409 2018 409
Q 2355 409 2581 587
Q 2807 766 2921 1069
Q 3036 1373 3036 1745
Q 3036 2114 2923 2410
Q 2811 2707 2585 2881
Q 2359 3055 2018 3055
Q 1691 3055 1468 2890
Q 1245 2725 1131 2430
Q 1018 2136 1018 1745
z
" transform="scale(0.015625)"/>
     <path id="Inter-Regular-307" d="M 1909 -73
Q 1436 -73 1080 152
Q 725 377 526 781
Q 327 1186 327 1727
Q 327 2273 526 2679
Q 725 3086 1080 3311
Q 1436 3536 1909 3536
Q 2382 3536 2737 3311
Q 3093 3086 3292 2679
Q 3491 2273 3491 1727
Q 3491 1186 3292 781
Q 3093 377 2737 152
Q 2382 -73 1909 -73
z
M 1909 409
Q 2268 409 2500 593
Q 2732 777 2843 1077
Q 2955 1377 2955 1727
Q 2955 2077 2843 2379
Q 2732 2682 2500 2868
Q 2268 3055 1909 3055
Q 1550 3055 1318 2868
Q 1086 2682 975 2379
Q 864 2077 864 1727
Q 864 1377 975 1077
Q 1086 777 1318 593
Q 1550 409 1909 409
z
" transform="scale(0.015625)"/>
     <path id="Inter-Regular-3a4" d="M 3345 3491
L 2055 0
L 1509 0
L 218 3491
L 800 3491
L 1764 709
L 1800 709
L 2764 3491
L 3345 3491
z
" transform="scale(0.015625)"/>
     <path id="Inter-Regular-3b6" d="M 836 -1309
Q 700 -1309 593 -1287
Q 486 -1266 445 -1245
L 582 -773
Q 777 -823 927 -809
Q 1077 -795 1194 -676
Q 1311 -557 1409 -291
L 1509 -18
L 218 3491
L 800 3491
L 1764 709
L 1800 709
L 2764 3491
L 3345 3491
L 1864 -509
Q 1764 -780 1616 -958
Q 1468 -1136 1274 -1222
Q 1080 -1309 836 -1309
z
" transform="scale(0.015625)"/>
     <path id="Inter-Regular-246" d="M 1909 -73
Q 1418 -73 1063 159
Q 709 391 518 798
Q 327 1205 327 1727
Q 327 2259 523 2667
Q 720 3075 1073 3305
Q 1427 3536 1900 3536
Q 2268 3536 2563 3400
Q 2859 3264 3047 3018
Q 3236 2773 3282 2445
L 2745 2445
Q 2684 2684 2474 2869
Q 2264 3055 1909 3055
Q 1595 3055 1360 2892
Q 1125 2730 994 2435
Q 864 2141 864 1745
Q 864 1341 992 1041
Q 1120 741 1355 575
Q 1591 409 1909 409
Q 2118 409 2288 482
Q 2459 555 2577 691
Q 2695 827 2745 1018
L 3282 1018
Q 3236 709 3058 462
Q 2880 216 2587 71
Q 2295 -73 1909 -73
z
" transform="scale(0.015625)"/>
     <path id="Inter-Regular-59e" d="M 645 654
L 645 1163
L 3573 1163
L 3573 654
L 645 654
z
M 3573 2581
L 645 1527
L 645 2081
L 2691 2754
L 2673 2718
L 2673 2809
L 2691 2772
L 645 3445
L 645 4000
L 3573 2945
L 3573 2581
z
" transform="scale(0.015625)"/>
     <path id="Inter-Regular-28a" d="M 1900 -1382
Q 1511 -1382 1231 -1283
Q 952 -1184 767 -1024
Q 582 -864 473 -682
L 900 -382
Q 973 -477 1084 -601
Q 1195 -725 1389 -817
Q 1584 -909 1900 -909
Q 2323 -909 2598 -704
Q 2873 -500 2873 -64
L 2873 645
L 2827 645
Q 2768 550 2660 410
Q 2552 270 2351 162
Q 2150 55 1809 55
Q 1386 55 1051 255
Q 716 455 521 836
Q 327 1218 327 1764
Q 327 2300 516 2699
Q 705 3098 1041 3317
Q 1377 3536 1818 3536
Q 2159 3536 2360 3423
Q 2561 3311 2669 3169
Q 2777 3027 2836 2936
L 2891 2936
L 2891 3491
L 3409 3491
L 3409 -100
Q 3409 -550 3205 -833
Q 3002 -1116 2660 -1249
Q 2318 -1382 1900 -1382
z
M 1882 536
Q 2205 536 2427 684
Q 2650 832 2766 1109
Q 2882 1386 2882 1773
Q 2882 2150 2768 2438
Q 2655 2727 2432 2891
Q 2209 3055 1882 3055
Q 1541 3055 1315 2882
Q 1089 2709 976 2418
Q 864 2127 864 1773
Q 864 1409 978 1130
Q 1093 852 1319 694
Q 1545 536 1882 536
z
" transform="scale(0.015625)"/>
    </defs>
    <use xlink:href="#Inter-Regular-118"/>
    <use xlink:href="#Inter-Regular-264" transform="translate(56.25 0)"/>
    <use xlink:href="#Inter-Regular-1f8" transform="translate(114.484375 0)"/>
    <use xlink:href="#Inter-Regular-2f7" transform="translate(170.875 0)"/>
    <use xlink:href="#Inter-Regular-691" transform="translate(229.390625 0)"/>
    <use xlink:href="#Inter-Regular-33b" transform="translate(257.515625 0)"/>
    <use xlink:href="#Inter-Regular-345" transform="translate(318.453125 0)"/>
    <use xlink:href="#Inter-Regular-307" transform="translate(353.96875 0)"/>
    <use xlink:href="#Inter-Regular-3a4" transform="translate(411.640625 0)"/>
    <use xlink:href="#Inter-Regular-264" transform="translate(465.34375 0)"/>
    <use xlink:href="#Inter-Regular-363" transform="translate(523.578125 0)"/>
    <use xlink:href="#Inter-Regular-691" transform="translate(575.84375 0)"/>
    <use xlink:href="#Inter-Regular-264" transform="translate(603.96875 0)"/>
    <use xlink:href="#Inter-Regular-3a4" transform="translate(660.5 0)"/>
    <use xlink:href="#Inter-Regular-264" transform="translate(714.203125 0)"/>
    <use xlink:href="#Inter-Regular-345" transform="translate(772.4375 0)"/>
    <use xlink:href="#Inter-Regular-3b6" transform="translate(811.359375 0)"/>
    <use xlink:href="#Inter-Regular-691" transform="translate(867.046875 0)"/>
    <use xlink:href="#Inter-Regular-246" transform="translate(895.171875 0)"/>
    <use xlink:href="#Inter-Regular-264" transform="translate(951 0)"/>
    <use xlink:href="#Inter-Regular-2f7" transform="translate(1009.234375 0)"/>
    <use xlink:href="#Inter-Regular-374" transform="translate(1067.75 0)"/>
    <use xlink:href="#Inter-Regular-264" transform="translate(1103.546875 0)"/>
    <use xlink:href="#Inter-Regular-345" transform="translate(1161.78125 0)"/>
    <use xlink:href="#Inter-Regular-691" transform="translate(1199 0)"/>
    <use xlink:href="#Inter-Regular-2f7" transform="translate(1227.125 0)"/>
    <use xlink:href="#Inter-Regular-691" transform="translate(1285.640625 0)"/>
    <use xlink:href="#Inter-Regular-59e" transform="translate(1313.765625 0)"/>
    <use xlink:href="#Inter-Regular-691" transform="translate(1379.671875 0)"/>
    <use xlink:href="#Inter-Regular-516" transform="translate(1407.796875 0)"/>
    <use xlink:href="#Inter-Regular-691" transform="translate(1470.15625 0)"/>
    <use xlink:href="#Inter-Regular-2a7" transform="translate(1498.28125 0)"/>
    <use xlink:href="#Inter-Regular-363" transform="translate(1522 0)"/>
    <use xlink:href="#Inter-Regular-691" transform="translate(1574.265625 0)"/>
    <use xlink:href="#Inter-Regular-33b" transform="translate(1602.390625 0)"/>
    <use xlink:href="#Inter-Regular-307" transform="translate(1663.328125 0)"/>
    <use xlink:href="#Inter-Regular-363" transform="translate(1722.984375 0)"/>
    <use xlink:href="#Inter-Regular-2a7" transform="translate(1775.25 0)"/>
    <use xlink:href="#Inter-Regular-374" transform="translate(1798.96875 0)"/>
    <use xlink:href="#Inter-Regular-2a7" transform="translate(1835.328125 0)"/>
    <use xlink:href="#Inter-Regular-3a4" transform="translate(1859.046875 0)"/>
    <use xlink:href="#Inter-Regular-264" transform="translate(1912.75 0)"/>
    <use xlink:href="#Inter-Regular-691" transform="translate(1970.984375 0)"/>
    <use xlink:href="#Inter-Regular-1f8" transform="translate(1999.109375 0)"/>
    <use xlink:href="#Inter-Regular-2f7" transform="translate(2055.5 0)"/>
    <use xlink:href="#Inter-Regular-252" transform="translate(2114.015625 0)"/>
    <use xlink:href="#Inter-Regular-691" transform="translate(2176.09375 0)"/>
    <use xlink:href="#Inter-Regular-246" transform="translate(2204.21875 0)"/>
    <use xlink:href="#Inter-Regular-264" transform="translate(2260.046875 0)"/>
    <use xlink:href="#Inter-Regular-2f7" transform="translate(2318.28125 0)"/>
    <use xlink:href="#Inter-Regular-374" transform="translate(2376.796875 0)"/>
    <use xlink:href="#Inter-Regular-264" transform="translate(2412.59375 0)"/>
    <use xlink:href="#Inter-Regular-345" transform="translate(2470.828125 0)"/>
    <use xlink:href="#Inter-Regular-691" transform="translate(2508.046875 0)"/>
    <use xlink:href="#Inter-Regular-514" transform="translate(2536.171875 0)"/>
    <use xlink:href="#Inter-Regular-691" transform="translate(2596.96875 0)"/>
    <use xlink:href="#Inter-Regular-2a7" transform="translate(2625.09375 0)"/>
    <use xlink:href="#Inter-Regular-363" transform="translate(2648.8125 0)"/>
    <use xlink:href="#Inter-Regular-691" transform="translate(2701.078125 0)"/>
    <use xlink:href="#Inter-Regular-2f7" transform="translate(2729.203125 0)"/>
    <use xlink:href="#Inter-Regular-264" transform="translate(2787.71875 0)"/>
    <use xlink:href="#Inter-Regular-28a" transform="translate(2845.953125 0)"/>
    <use xlink:href="#Inter-Regular-1f8" transform="translate(2906.890625 0)"/>
    <use xlink:href="#Inter-Regular-374" transform="translate(2963.28125 0)"/>
    <use xlink:href="#Inter-Regular-2a7" transform="translate(2999.640625 0)"/>
    <use xlink:href="#Inter-Regular-3a4" transform="translate(3023.359375 0)"/>
    <use xlink:href="#Inter-Regular-264" transform="translate(3077.0625 0)"/>
    <use xlink:href="#Inter-Regular-57c" transform="translate(3135.296875 0)"/>
   </g>
   <!-- The plot shows n = 4…59; heights are numerical, with every displayed sign checked by exact integer powers. -->
   <g style="fill: #444444" transform="translate(80.64 390.96) scale(0.12 -0.12)">
    <defs>
     <path id="Inter-Regular-294" d="M 1027 2100
L 1027 0
L 491 0
L 491 4655
L 1027 4655
L 1027 2945
L 1073 2945
Q 1195 3216 1442 3376
Q 1689 3536 2100 3536
Q 2457 3536 2725 3394
Q 2993 3252 3142 2960
Q 3291 2668 3291 2218
L 3291 0
L 2755 0
L 2755 2182
Q 2755 2598 2540 2826
Q 2325 3055 1945 3055
Q 1682 3055 1474 2943
Q 1266 2832 1146 2618
Q 1027 2405 1027 2100
z
" transform="scale(0.015625)"/>
     <path id="Inter-Regular-3a8" d="M 1282 0
L 218 3491
L 782 3491
L 1536 818
L 1573 818
L 2318 3491
L 2891 3491
L 3627 827
L 3664 827
L 4418 3491
L 4982 3491
L 3918 0
L 3391 0
L 2627 2682
L 2573 2682
L 1809 0
L 1282 0
z
" transform="scale(0.015625)"/>
     <path id="Inter-Regular-59f" d="M 709 2755
L 709 3245
L 3509 3245
L 3509 2755
L 709 2755
z
M 709 1409
L 709 1900
L 3509 1900
L 3509 1409
L 709 1409
z
" transform="scale(0.015625)"/>
     <path id="Inter-Regular-57d" d="M 882 -36
Q 714 -36 593 84
Q 473 205 473 373
Q 473 541 593 661
Q 714 782 882 782
Q 1050 782 1170 661
Q 1291 541 1291 373
Q 1291 261 1235 168
Q 1180 75 1087 19
Q 995 -36 882 -36
z
M 2627 -36
Q 2459 -36 2338 84
Q 2218 205 2218 373
Q 2218 541 2338 661
Q 2459 782 2627 782
Q 2795 782 2915 661
Q 3036 541 3036 373
Q 3036 261 2980 168
Q 2925 75 2832 19
Q 2740 -36 2627 -36
z
M 4373 -36
Q 4205 -36 4084 84
Q 3964 205 3964 373
Q 3964 541 4084 661
Q 4205 782 4373 782
Q 4541 782 4661 661
Q 4782 541 4782 373
Q 4782 261 4726 168
Q 4671 75 4578 19
Q 4486 -36 4373 -36
z
" transform="scale(0.015625)"/>
     <path id="Inter-Regular-519" d="M 1964 4718
Q 2250 4716 2536 4609
Q 2823 4502 3059 4255
Q 3295 4009 3438 3584
Q 3582 3159 3582 2518
Q 3582 1898 3465 1417
Q 3348 936 3128 606
Q 2909 277 2596 106
Q 2284 -64 1891 -64
Q 1500 -64 1194 92
Q 889 248 694 526
Q 500 805 445 1173
L 1000 1173
Q 1075 852 1299 644
Q 1523 436 1891 436
Q 2430 436 2742 906
Q 3055 1377 3055 2236
L 3018 2236
Q 2891 2045 2716 1906
Q 2541 1768 2327 1693
Q 2114 1618 1873 1618
Q 1473 1618 1140 1817
Q 807 2016 608 2365
Q 409 2714 409 3164
Q 409 3591 601 3946
Q 793 4302 1142 4513
Q 1491 4725 1964 4718
z
M 1964 4218
Q 1677 4218 1448 4076
Q 1220 3934 1087 3694
Q 955 3455 955 3164
Q 955 2873 1083 2635
Q 1211 2398 1435 2258
Q 1659 2118 1945 2118
Q 2161 2118 2347 2203
Q 2534 2289 2674 2437
Q 2814 2586 2893 2776
Q 2973 2966 2973 3173
Q 2973 3445 2842 3684
Q 2711 3923 2483 4070
Q 2255 4218 1964 4218
z
" transform="scale(0.015625)"/>
     <path id="Inter-Regular-582" d="M 1291 636
L 1255 391
Q 1216 132 1137 -163
Q 1059 -459 975 -720
Q 891 -982 836 -1136
L 427 -1136
Q 457 -991 504 -752
Q 552 -514 601 -219
Q 650 75 682 382
L 709 636
L 1291 636
z
M 964 2555
Q 795 2555 675 2675
Q 555 2795 555 2964
Q 555 3132 675 3252
Q 795 3373 964 3373
Q 1132 3373 1252 3252
Q 1373 3132 1373 2964
Q 1373 2852 1317 2759
Q 1261 2666 1169 2610
Q 1077 2555 964 2555
z
" transform="scale(0.015625)"/>
     <path id="Inter-Regular-383" d="M 2691 1427
L 2691 3491
L 3227 3491
L 3227 0
L 2691 0
L 2691 591
L 2655 591
Q 2532 325 2273 140
Q 2014 -45 1618 -45
Q 1291 -45 1036 99
Q 782 243 636 535
Q 491 827 491 1273
L 491 3491
L 1027 3491
L 1027 1309
Q 1027 927 1242 700
Q 1457 473 1791 473
Q 1991 473 2199 575
Q 2407 677 2549 888
Q 2691 1100 2691 1427
z
" transform="scale(0.015625)"/>
     <path id="Inter-Regular-2f0" d="M 491 0
L 491 3491
L 1009 3491
L 1009 2945
L 1055 2945
Q 1164 3225 1407 3380
Q 1650 3536 1991 3536
Q 2336 3536 2567 3380
Q 2798 3225 2927 2945
L 2964 2945
Q 3098 3216 3366 3376
Q 3634 3536 4009 3536
Q 4477 3536 4775 3244
Q 5073 2952 5073 2336
L 5073 0
L 4536 0
L 4536 2336
Q 4536 2723 4325 2889
Q 4114 3055 3827 3055
Q 3459 3055 3257 2833
Q 3055 2611 3055 2273
L 3055 0
L 2509 0
L 2509 2391
Q 2509 2689 2316 2872
Q 2123 3055 1818 3055
Q 1609 3055 1428 2943
Q 1248 2832 1137 2635
Q 1027 2439 1027 2182
L 1027 0
L 491 0
z
" transform="scale(0.015625)"/>
     <path id="Inter-Regular-57b" d="M 1291 636
L 1255 391
Q 1216 132 1137 -163
Q 1059 -459 975 -720
Q 891 -982 836 -1136
L 427 -1136
Q 457 -991 504 -752
Q 552 -514 601 -219
Q 650 75 682 382
L 709 636
L 1291 636
z
" transform="scale(0.015625)"/>
     <path id="Inter-Regular-2cb" d="M 991 1273
L 982 1936
L 1091 1936
L 2618 3491
L 3282 3491
L 1655 1845
L 1609 1845
L 991 1273
z
M 491 0
L 491 4655
L 1027 4655
L 1027 0
L 491 0
z
M 2709 0
L 1345 1727
L 1727 2100
L 3391 0
L 2709 0
z
" transform="scale(0.015625)"/>
     <path id="Inter-Regular-23f" d="M 564 0
L 564 4655
L 1100 4655
L 1100 2936
L 1145 2936
Q 1205 3027 1310 3169
Q 1416 3311 1615 3423
Q 1814 3536 2155 3536
Q 2595 3536 2931 3315
Q 3268 3095 3456 2690
Q 3645 2286 3645 1736
Q 3645 1182 3456 776
Q 3268 370 2934 148
Q 2600 -73 2164 -73
Q 1827 -73 1625 39
Q 1423 152 1314 296
Q 1205 441 1145 536
L 1082 536
L 1082 0
L 564 0
z
M 1091 1745
Q 1091 1350 1207 1049
Q 1323 748 1545 578
Q 1768 409 2091 409
Q 2427 409 2653 587
Q 2880 766 2994 1069
Q 3109 1373 3109 1745
Q 3109 2114 2996 2410
Q 2884 2707 2658 2881
Q 2432 3055 2091 3055
Q 1764 3055 1541 2890
Q 1318 2725 1204 2430
Q 1091 2136 1091 1745
z
" transform="scale(0.015625)"/>
    </defs>
    <use xlink:href="#Inter-Regular-199"/>
    <use xlink:href="#Inter-Regular-294" transform="translate(64.203125 0)"/>
    <use xlink:href="#Inter-Regular-264" transform="translate(123.296875 0)"/>
    <use xlink:href="#Inter-Regular-691" transform="translate(181.53125 0)"/>
    <use xlink:href="#Inter-Regular-33b" transform="translate(209.65625 0)"/>
    <use xlink:href="#Inter-Regular-2d3" transform="translate(270.59375 0)"/>
    <use xlink:href="#Inter-Regular-307" transform="translate(294.3125 0)"/>
    <use xlink:href="#Inter-Regular-374" transform="translate(353.96875 0)"/>
    <use xlink:href="#Inter-Regular-691" transform="translate(390.328125 0)"/>
    <use xlink:href="#Inter-Regular-363" transform="translate(418.453125 0)"/>
    <use xlink:href="#Inter-Regular-294" transform="translate(470.71875 0)"/>
    <use xlink:href="#Inter-Regular-307" transform="translate(529.8125 0)"/>
    <use xlink:href="#Inter-Regular-3a8" transform="translate(587.625 0)"/>
    <use xlink:href="#Inter-Regular-363" transform="translate(668.875 0)"/>
    <use xlink:href="#Inter-Regular-691" transform="translate(721.140625 0)"/>
    <use xlink:href="#Inter-Regular-2f7" transform="translate(749.265625 0)"/>
    <use xlink:href="#Inter-Regular-691" transform="translate(807.78125 0)"/>
    <use xlink:href="#Inter-Regular-59f" transform="translate(835.90625 0)"/>
    <use xlink:href="#Inter-Regular-691" transform="translate(901.8125 0)"/>
    <use xlink:href="#Inter-Regular-513" transform="translate(929.9375 0)"/>
    <use xlink:href="#Inter-Regular-57d" transform="translate(990.734375 0)"/>
    <use xlink:href="#Inter-Regular-514" transform="translate(1071.421875 0)"/>
    <use xlink:href="#Inter-Regular-519" transform="translate(1132.21875 0)"/>
    <use xlink:href="#Inter-Regular-582" transform="translate(1194.578125 0)"/>
    <use xlink:href="#Inter-Regular-691" transform="translate(1222.5625 0)"/>
    <use xlink:href="#Inter-Regular-294" transform="translate(1250.6875 0)"/>
    <use xlink:href="#Inter-Regular-264" transform="translate(1309.78125 0)"/>
    <use xlink:href="#Inter-Regular-2a7" transform="translate(1368.015625 0)"/>
    <use xlink:href="#Inter-Regular-28a" transform="translate(1391.734375 0)"/>
    <use xlink:href="#Inter-Regular-294" transform="translate(1452.671875 0)"/>
    <use xlink:href="#Inter-Regular-374" transform="translate(1511.765625 0)"/>
    <use xlink:href="#Inter-Regular-363" transform="translate(1547.125 0)"/>
    <use xlink:href="#Inter-Regular-691" transform="translate(1599.390625 0)"/>
    <use xlink:href="#Inter-Regular-1f8" transform="translate(1627.515625 0)"/>
    <use xlink:href="#Inter-Regular-345" transform="translate(1683.90625 0)"/>
    <use xlink:href="#Inter-Regular-264" transform="translate(1719.421875 0)"/>
    <use xlink:href="#Inter-Regular-691" transform="translate(1777.65625 0)"/>
    <use xlink:href="#Inter-Regular-2f7" transform="translate(1805.78125 0)"/>
    <use xlink:href="#Inter-Regular-383" transform="translate(1864.296875 0)"/>
    <use xlink:href="#Inter-Regular-2f0" transform="translate(1922.390625 0)"/>
    <use xlink:href="#Inter-Regular-264" transform="translate(2009.328125 0)"/>
    <use xlink:href="#Inter-Regular-345" transform="translate(2067.5625 0)"/>
    <use xlink:href="#Inter-Regular-2a7" transform="translate(2104.78125 0)"/>
    <use xlink:href="#Inter-Regular-246" transform="translate(2128.5 0)"/>
    <use xlink:href="#Inter-Regular-1f8" transform="translate(2184.328125 0)"/>
    <use xlink:href="#Inter-Regular-2d3" transform="translate(2240.71875 0)"/>
    <use xlink:href="#Inter-Regular-57b" transform="translate(2264.4375 0)"/>
    <use xlink:href="#Inter-Regular-691" transform="translate(2292.421875 0)"/>
    <use xlink:href="#Inter-Regular-3a8" transform="translate(2320.546875 0)"/>
    <use xlink:href="#Inter-Regular-2a7" transform="translate(2401.796875 0)"/>
    <use xlink:href="#Inter-Regular-374" transform="translate(2425.515625 0)"/>
    <use xlink:href="#Inter-Regular-294" transform="translate(2463.015625 0)"/>
    <use xlink:href="#Inter-Regular-691" transform="translate(2522.109375 0)"/>
    <use xlink:href="#Inter-Regular-264" transform="translate(2550.234375 0)"/>
    <use xlink:href="#Inter-Regular-3a4" transform="translate(2606.765625 0)"/>
    <use xlink:href="#Inter-Regular-264" transform="translate(2660.46875 0)"/>
    <use xlink:href="#Inter-Regular-345" transform="translate(2718.703125 0)"/>
    <use xlink:href="#Inter-Regular-3b6" transform="translate(2757.625 0)"/>
    <use xlink:href="#Inter-Regular-691" transform="translate(2813.3125 0)"/>
    <use xlink:href="#Inter-Regular-252" transform="translate(2841.4375 0)"/>
    <use xlink:href="#Inter-Regular-2a7" transform="translate(2903.515625 0)"/>
    <use xlink:href="#Inter-Regular-363" transform="translate(2927.234375 0)"/>
    <use xlink:href="#Inter-Regular-33b" transform="translate(2979.5 0)"/>
    <use xlink:href="#Inter-Regular-2d3" transform="translate(3040.4375 0)"/>
    <use xlink:href="#Inter-Regular-1f8" transform="translate(3064.15625 0)"/>
    <use xlink:href="#Inter-Regular-3b6" transform="translate(3118.5625 0)"/>
    <use xlink:href="#Inter-Regular-264" transform="translate(3172.265625 0)"/>
    <use xlink:href="#Inter-Regular-252" transform="translate(3230.5 0)"/>
    <use xlink:href="#Inter-Regular-691" transform="translate(3292.578125 0)"/>
    <use xlink:href="#Inter-Regular-363" transform="translate(3320.703125 0)"/>
    <use xlink:href="#Inter-Regular-2a7" transform="translate(3372.96875 0)"/>
    <use xlink:href="#Inter-Regular-28a" transform="translate(3396.6875 0)"/>
    <use xlink:href="#Inter-Regular-2f7" transform="translate(3457.625 0)"/>
    <use xlink:href="#Inter-Regular-691" transform="translate(3516.140625 0)"/>
    <use xlink:href="#Inter-Regular-246" transform="translate(3544.265625 0)"/>
    <use xlink:href="#Inter-Regular-294" transform="translate(3600.09375 0)"/>
    <use xlink:href="#Inter-Regular-264" transform="translate(3659.1875 0)"/>
    <use xlink:href="#Inter-Regular-246" transform="translate(3717.421875 0)"/>
    <use xlink:href="#Inter-Regular-2cb" transform="translate(3773.25 0)"/>
    <use xlink:href="#Inter-Regular-264" transform="translate(3825.390625 0)"/>
    <use xlink:href="#Inter-Regular-252" transform="translate(3883.625 0)"/>
    <use xlink:href="#Inter-Regular-691" transform="translate(3945.703125 0)"/>
    <use xlink:href="#Inter-Regular-23f" transform="translate(3973.828125 0)"/>
    <use xlink:href="#Inter-Regular-3b6" transform="translate(4033.921875 0)"/>
    <use xlink:href="#Inter-Regular-691" transform="translate(4089.609375 0)"/>
    <use xlink:href="#Inter-Regular-264" transform="translate(4117.734375 0)"/>
    <use xlink:href="#Inter-Regular-3b1" transform="translate(4174.546875 0)"/>
    <use xlink:href="#Inter-Regular-1f8" transform="translate(4228.53125 0)"/>
    <use xlink:href="#Inter-Regular-246" transform="translate(4284.921875 0)"/>
    <use xlink:href="#Inter-Regular-374" transform="translate(4340.75 0)"/>
    <use xlink:href="#Inter-Regular-691" transform="translate(4377.109375 0)"/>
    <use xlink:href="#Inter-Regular-2a7" transform="translate(4405.234375 0)"/>
    <use xlink:href="#Inter-Regular-2f7" transform="translate(4428.953125 0)"/>
    <use xlink:href="#Inter-Regular-374" transform="translate(4487.46875 0)"/>
    <use xlink:href="#Inter-Regular-264" transform="translate(4523.265625 0)"/>
    <use xlink:href="#Inter-Regular-28a" transform="translate(4581.5 0)"/>
    <use xlink:href="#Inter-Regular-264" transform="translate(4642.4375 0)"/>
    <use xlink:href="#Inter-Regular-345" transform="translate(4700.671875 0)"/>
    <use xlink:href="#Inter-Regular-691" transform="translate(4737.890625 0)"/>
    <use xlink:href="#Inter-Regular-33b" transform="translate(4766.015625 0)"/>
    <use xlink:href="#Inter-Regular-307" transform="translate(4826.953125 0)"/>
    <use xlink:href="#Inter-Regular-3a8" transform="translate(4884.765625 0)"/>
    <use xlink:href="#Inter-Regular-264" transform="translate(4964.171875 0)"/>
    <use xlink:href="#Inter-Regular-345" transform="translate(5022.40625 0)"/>
    <use xlink:href="#Inter-Regular-363" transform="translate(5059.625 0)"/>
    <use xlink:href="#Inter-Regular-57c" transform="translate(5111.890625 0)"/>
   </g>
  </g>
  <g id="text_36">
   <!-- $r_n=T_n^{1/n}$, with margin $\Delta_n=2\log r_n-\log r_{n-1}-\log r_{n+1}$ -->
   <g style="fill: #252525" transform="translate(80.64 64.8) scale(0.13 -0.13)">
    <defs>
     <path id="Inter-Regular-592" d="M 709 2245
L 709 2736
L 3509 2736
L 3509 2245
L 709 2245
z
M 709 900
L 709 1391
L 3509 1391
L 3509 900
L 709 900
z
" transform="scale(0.015625)"/>
     <path id="Inter-Regular-594" d="M 1855 318
L 1855 3318
L 2364 3318
L 2364 318
L 1855 318
z
M 609 1564
L 609 2073
L 3609 2073
L 3609 1564
L 609 1564
z
" transform="scale(0.015625)"/>
    </defs>
    <use xlink:href="#Inter-Regular-345" transform="translate(0 0.407812)"/>
    <use xlink:href="#Inter-Regular-2f7" transform="translate(38.17036 -15.95625) scale(0.7)"/>
    <use xlink:href="#Inter-Regular-592" transform="translate(99.2498 0.407812)"/>
    <use xlink:href="#Inter-Regular-199" transform="translate(182.545 0.407812)"/>
    <use xlink:href="#Inter-Regular-50f" transform="translate(247.703916 51.701563) scale(0.7)"/>
    <use xlink:href="#Inter-Regular-54d" transform="translate(280.218017 51.701563) scale(0.7)"/>
    <use xlink:href="#Inter-Regular-2f7" transform="translate(305.17533 51.701563) scale(0.7)"/>
    <use xlink:href="#Inter-Regular-2f7" transform="translate(247.703916 -19.629687) scale(0.7)"/>
    <use xlink:href="#Inter-Regular-57b" transform="translate(348.868461 0.407812)"/>
    <use xlink:href="#Inter-Regular-691" transform="translate(376.851325 0.407812)"/>
    <use xlink:href="#Inter-Regular-3a8" transform="translate(404.976234 0.407812)"/>
    <use xlink:href="#Inter-Regular-2a7" transform="translate(486.225989 0.407812)"/>
    <use xlink:href="#Inter-Regular-374" transform="translate(509.947501 0.407812)"/>
    <use xlink:href="#Inter-Regular-294" transform="translate(546.311027 0.407812)"/>
    <use xlink:href="#Inter-Regular-691" transform="translate(605.401755 0.407812)"/>
    <use xlink:href="#Inter-Regular-2f0" transform="translate(633.526664 0.407812)"/>
    <use xlink:href="#Inter-Regular-1f8" transform="translate(720.458213 0.407812)"/>
    <use xlink:href="#Inter-Regular-345" transform="translate(776.850089 0.407812)"/>
    <use xlink:href="#Inter-Regular-28a" transform="translate(814.065879 0.407812)"/>
    <use xlink:href="#Inter-Regular-2a7" transform="translate(875.003196 0.407812)"/>
    <use xlink:href="#Inter-Regular-2f7" transform="translate(898.724708 0.407812)"/>
    <use xlink:href="#Inter-Regular-691" transform="translate(957.24726 0.407812)"/>
    <use xlink:href="#Inter-Regular-3db" transform="translate(985.372169 0.407812)"/>
    <use xlink:href="#Inter-Regular-2f7" transform="translate(1053.940173 -15.95625) scale(0.7)"/>
    <use xlink:href="#Inter-Regular-592" transform="translate(1115.019613 0.407812)"/>
    <use xlink:href="#Inter-Regular-510" transform="translate(1198.314813 0.407812)"/>
    <use xlink:href="#Inter-Regular-2d3" transform="translate(1258.825997 0.407812)"/>
    <use xlink:href="#Inter-Regular-307" transform="translate(1282.547509 0.407812)"/>
    <use xlink:href="#Inter-Regular-28a" transform="translate(1342.206414 0.407812)"/>
    <use xlink:href="#Inter-Regular-345" transform="translate(1417.632612 0.407812)"/>
    <use xlink:href="#Inter-Regular-2f7" transform="translate(1455.802972 -15.95625) scale(0.7)"/>
    <use xlink:href="#Inter-Regular-595" transform="translate(1516.882413 0.407812)"/>
    <use xlink:href="#Inter-Regular-2d3" transform="translate(1600.177612 0.407812)"/>
    <use xlink:href="#Inter-Regular-307" transform="translate(1623.899124 0.407812)"/>
    <use xlink:href="#Inter-Regular-28a" transform="translate(1683.558029 0.407812)"/>
    <use xlink:href="#Inter-Regular-345" transform="translate(1758.984227 0.407812)"/>
    <use xlink:href="#Inter-Regular-2f7" transform="translate(1797.154588 -15.95625) scale(0.7)"/>
    <use xlink:href="#Inter-Regular-595" transform="translate(1850.290791 -15.95625) scale(0.7)"/>
    <use xlink:href="#Inter-Regular-50f" transform="translate(1908.597431 -15.95625) scale(0.7)"/>
    <use xlink:href="#Inter-Regular-595" transform="translate(1961.225185 0.407812)"/>
    <use xlink:href="#Inter-Regular-2d3" transform="translate(2044.520385 0.407812)"/>
    <use xlink:href="#Inter-Regular-307" transform="translate(2068.241896 0.407812)"/>
    <use xlink:href="#Inter-Regular-28a" transform="translate(2127.900802 0.407812)"/>
    <use xlink:href="#Inter-Regular-345" transform="translate(2203.327 0.407812)"/>
    <use xlink:href="#Inter-Regular-2f7" transform="translate(2241.49736 -15.95625) scale(0.7)"/>
    <use xlink:href="#Inter-Regular-594" transform="translate(2294.633563 -15.95625) scale(0.7)"/>
    <use xlink:href="#Inter-Regular-50f" transform="translate(2352.940203 -15.95625) scale(0.7)"/>
   </g>
  </g>
 </g>
 <defs>
  <clipPath id="pb50018b40f">
   <rect x="90.72" y="103.68" width="379.076923" height="224.64"/>
  </clipPath>
  <clipPath id="p05b05a7b3d">
   <rect x="598.683077" y="103.68" width="379.076923" height="224.64"/>
  </clipPath>
 </defs>
</svg>
